<svg xmlns="http://www.w3.org/2000/svg" version="1.1" xmlns:xlink="http://www.w3.org/1999/xlink" xmlns:svgjs="http://svgjs.dev/svgjs" viewBox="0 0 800 800"><defs><linearGradient x1="50%" y1="0%" x2="50%" y2="100%" id="ccchaos-grad"><stop stop-color="hsl(0, 0%, 0%)" stop-opacity="1" offset="0%"></stop><stop stop-color="rgb(255, 21, 0)" stop-opacity="1" offset="100%"></stop></linearGradient></defs><g stroke-width="1" stroke="url(#ccchaos-grad)" fill="none" stroke-linecap="round"><path d="M380 -159.71C389.2 -161.01 398.47 -162.03 407.83 -162.75 417.2 -163.4 426.66 -163.7 436.23 -163.65 445.83 -163.45 455.56 -162.86 465.43 -161.88 475.36 -160.73 485.44 -159.16 495.7 -157.21 506.05 -155.07 516.59 -152.56 527.34 -149.67 538.2 -146.65 549.27 -143.28 560.57 -139.6 571.98 -135.83 583.6 -131.78 595.42 -127.49 607.32 -123.16 619.38 -118.63 631.57 -113.93 643.76 -109.25 655.99 -104.44 668.21 -99.51 680.28 -94.65 692.21 -89.71 703.9 -84.69 715.26 -79.79 726.21 -74.83 736.63 -69.81 746.5 -64.93 755.66 -60 764.01 -55.02 771.58 -50.17 778.18 -45.26 783.72 -40.29 790.14 -32.97 796.03 -18.04 795.72 -10.37 793.72 -2.67 786.76 13.41 783.09 21.83 781.39 27.51 780.33 33.36 780.2 39.4 781.47 45.46 784.11 51.72 788.33 58.17 794.4 64.65 802.24 71.33 811.87 78.21 823.3 85.13 836.31 92.24 850.71 99.53 866.21 106.88 882.44 114.41 898.99 122.11 915.4 129.85 931.2 137.76 945.86 145.83 958.98 153.94 970.06 162.2 978.69 170.6 984.74 179.03 987.84 187.59 987.9 196.27 985.23 204.98 979.73 213.8 971.71 222.72 961.95 231.66 950.63 240.7 938.39 249.82 926.27 258.95 914.63 268.16 904.17 277.44 895.85 286.73 889.93 296.08 886.86 305.48 887.19 314.89 890.78 324.34 897.61 333.84 907.57 343.34 920.06 352.88 934.51 362.44 950.3 372 966.49 381.6 982.16 391.21 996.61 400.82 1008.72 410.33 1017.83 419.74 1023.77 429.15 1025.94 438.46 1024.27 447.67 1019.07 456.87 1010.4 465.97 998.74 474.96 984.82 483.96 969.15 492.84 952.51 501.63 935.74 510.41 919.47 519.1 904.39 527.68 891.16 536.28 880.18 544.77 871.75 553.17 866.21 561.59 863.48 569.93 863.43 578.18 866.08 586.46 870.86 594.66 877.33 602.79 885.32 610.97 894 619.08 902.81 627.14 911.58 635.26 919.47 643.34 926.03 651.37 931.24 659.48 934.45 667.56 935.48 675.62 934.46 683.75 931.1 691.87 925.46 699.98 917.83 708.17 908.2 716.35 896.86 724.52 884.12 732.76 870.22 740.99 855.49 749.19 840.22 757.45 824.73 765.67 809.3 773.83 794.14 782.03 779.53 790.14 765.63 798.15 752.58 806.15 740.5 814.01 729.45 821.7 719.49 829.32 710.58 836.73 702.69 843.9 695.84 850.94 689.87 857.69 684.65 864.11 680.25 870.35 676.39 876.23 672.91 881.72 668.57 889.4 660.55 902.23 656.27 907.35 651.68 911.67 640.22 917.99 633.14 920.11 628.05 921.33 622.44 922.29 616.33 923.01 610 923.79 603.2 924.42 595.95 924.96 588.51 925.68 580.66 926.39 572.45 927.13 564.1 928.16 555.43 929.29 546.47 930.55 537.42 932.17 528.13 933.94 518.63 935.87 509.08 938.17 499.35 940.61 489.48 943.16 479.58 946.01 469.55 948.92 459.41 951.81 449.26 954.88 439.01 957.83 428.68 960.61 418.35 963.37 408.05 965.79 397.79 967.82 387.54 969.66 377.32 971 367.14 971.81 356.95 972.3 346.8 972.2 336.68 971.5 326.55 970.42 316.44 968.74 306.36 966.45 296.26 963.81 286.19 960.61 276.13 956.9 266.07 952.9 256.03 948.47 246.02 943.64 236.02 938.65 226.05 933.36 216.14 927.82 206.26 922.26 196.45 916.54 186.73 910.71 177.07 904.97 167.53 899.21 158.13 893.44 148.83 887.86 139.7 882.32 130.77 876.85 121.97 871.62 113.39 866.47 105.05 861.41 96.88 856.6 88.96 851.86 81.31 847.19 73.82 842.74 66.58 838.33 59.61 833.94 52.77 829.72 46.15 825.48 39.75 821.19 33.41 817.02 27.24 812.75 21.22 808.37 15.17 804.05 9.22 799.56 3.33 794.91 -2.64 790.25 -8.59 785.38 -14.51 780.3 -20.57 775.17 -26.61 769.81 -32.61 764.2 -38.72 758.51 -44.75 752.58 -50.66 746.39 -56.59 740.11 -62.34 733.58 -67.83 726.81 -73.23 719.94 -78.3 712.84 -83.01 705.51 -87.52 698.09 -91.62 690.46 -95.3 682.63 -98.77 674.72 -101.85 666.63 -104.58 658.36 -107.2 650.04 -109.57 641.56 -111.76 632.93 -114.04 624.26 -116.29 615.45 -118.57 606.53 -121.16 597.58 -123.89 588.53 -126.8 579.38 -130.11 570.21 -133.61 560.96 -137.28 551.63 -141.24 542.3 -145.23 532.9 -149.16 523.44 -153.11 513.98 -156.79 504.46 -160.04 494.91 -163 485.35 -165.34 475.75 -166.98 466.13 -168.1 456.5 -168.43 446.85 -167.99 437.17 -167.06 427.49 -165.47 417.79 -163.31 408.07 -160.97 398.36 -158.34 388.74 -155.58 379.23 -153.03 369.71 -150.59 360.29 -148.36 350.98 -146.59 341.66 -145.12 332.45 -143.95 323.34 -143.25 314.22 -142.77 305.2 -142.42 296.28 -142.32 287.35 -142.16 278.52 -141.83 269.79 -141.45 261.04 -140.7 252.38 -139.5 243.82 -138.02 235.24 -135.98 226.75 -133.37 218.34 -130.4 209.9 -126.88 201.55 -122.84 193.27 -118.55 184.96 -113.85 176.73 -108.82 168.56 -103.71 160.36 -98.41 152.22 -92.97 144.14 -87.63 136.02 -82.26 127.96 -76.88 119.96 -71.69 111.91 -66.51 103.91 -61.37 95.98 -56.38 88 -51.38 80.08 -46.33 72.23 -41.36 64.34 -36.27 56.52 -31.03 48.78 -25.75 41.01 -20.25 33.34 -14.51 25.76 -8.65 18.18 -2.52 10.72 3.89 3.39 10.44 -3.91 17.28 -11.07 24.38 -18.05 31.58 -24.99 39.02 -31.73 46.65 -38.26 54.32 -44.7 62.14 -50.91 70.08 -56.87 77.98 -62.72 85.95 -68.29 93.97 -73.58 101.89 -78.73 109.82 -83.59 117.75 -88.13 125.53 -92.55 133.3 -96.65 141.06 -100.43 148.66 -104.1 156.26 -107.46 163.85 -110.52 171.29 -113.49 178.75 -116.19 186.24 -118.62 193.6 -121.01 201.02 -123.18 208.5 -125.12 215.88 -127.1 223.36 -128.89 230.93 -130.54 238.43 -132.27 246.05 -133.88 253.8 -135.39 261.5 -137.04 269.34 -138.62 277.32 -140.14 285.28 -141.83 293.38 -143.47 301.64 -145.06 309.87 -146.84 318.27 -148.55 326.82 -150.2 335.35 -151.99 344.05 -153.69 352.91 -155.26 361.77 -156.93 370.79 -158.42 379.99 -159.71" stroke-dasharray="0 1" transform="rotate(0, 400, 400)" opacity="0.05"></path><path d="M392.17 -139.7C401.32 -140.98 410.58 -141.99 419.95 -142.72 429.34 -143.38 438.86 -143.71 448.51 -143.7 458.2 -143.56 468.04 -143.04 478.03 -142.16 488.06 -141.11 498.26 -139.67 508.62 -137.85 519.04 -135.87 529.63 -133.52 540.37 -130.81 551.17 -127.95 562.12 -124.77 573.2 -121.27 584.29 -117.67 595.49 -113.8 606.75 -109.68 617.97 -105.51 629.19 -101.13 640.36 -96.56 651.39 -92 662.26 -87.29 672.91 -82.45 683.29 -77.67 693.31 -72.79 702.89 -67.82 712.04 -62.94 720.61 -58 728.5 -53 735.81 -48.12 742.33 -43.18 747.98 -38.2 754.96 -30.87 763.17 -16.13 764.49 -8.68 764.26 -1.29 760.52 13.84 757.94 21.64 756.09 29.5 756.28 45.9 759.59 54.47 763.66 60.25 769.14 66.19 776.16 72.31 784.82 78.44 795.01 84.76 806.66 91.24 819.65 97.76 833.76 104.46 848.72 111.33 864.22 118.23 879.9 125.31 895.36 132.56 910.2 139.84 924 147.28 936.31 154.88 946.87 162.51 955.25 170.29 961.16 178.21 964.62 186.16 965.36 194.24 963.36 202.45 959.05 210.68 952.37 219.03 943.67 227.49 933.71 235.97 922.69 244.54 911.17 253.21 900.11 261.89 889.79 270.66 880.82 279.5 874.01 288.35 869.54 297.27 867.76 306.26 869.11 315.25 873.42 324.3 880.61 333.39 890.57 342.49 902.76 351.64 916.61 360.82 931.62 370.01 946.91 379.23 961.71 388.48 975.39 397.73 986.93 406.9 995.78 415.98 1001.78 425.07 1004.36 434.06 1003.43 442.97 999.27 451.88 991.86 460.71 981.6 469.44 969.09 478.18 954.77 486.83 939.29 495.39 923.39 503.96 907.63 512.45 892.63 520.85 879.03 529.27 867.21 537.61 857.52 545.88 850.33 554.17 845.63 562.39 843.42 570.54 843.78 578.73 846.3 586.86 850.66 594.94 856.76 603.06 863.91 611.13 871.63 619.16 879.81 627.25 887.66 635.3 894.75 643.33 901.04 651.41 905.87 659.47 908.99 667.51 910.49 675.61 909.95 683.7 907.35 691.76 902.92 699.88 896.5 707.98 888.26 716.05 878.48 724.18 867.26 732.26 854.86 740.29 841.54 748.35 827.54 756.35 813.14 764.25 798.53 772.16 783.98 779.95 769.7 787.6 755.81 795.22 742.5 802.66 729.9 809.9 718.07 817.05 707.08 823.97 696.96 830.62 687.74 837.13 679.37 843.33 671.78 849.21 665.03 854.9 658.94 860.23 653.42 865.18 646.31 872.07 634.27 883.51 628.78 888.04 623.55 891.89 612.23 897.55 605.85 899.5 599 901.14 583.16 903.57 574.12 904.59 567.84 905.43 561.15 906.28 554.08 907.17 546.9 908.34 539.37 909.6 531.51 910.98 523.55 912.69 515.3 914.54 506.77 916.52 498.18 918.83 489.34 921.26 480.28 923.78 471.18 926.57 461.87 929.38 452.38 932.18 442.87 935.12 433.18 937.95 423.34 940.6 413.49 943.24 403.61 945.55 393.71 947.5 383.81 949.28 373.89 950.59 363.96 951.42 354.03 951.95 344.1 951.94 334.17 951.37 324.25 950.45 314.32 948.96 304.41 946.91 294.51 944.53 284.63 941.61 274.77 938.2 264.94 934.52 255.14 930.39 245.4 925.88 235.69 921.19 226.06 916.19 216.5 910.92 207.02 905.6 197.64 900.09 188.38 894.43 179.23 888.84 170.23 883.17 161.4 877.47 152.71 871.91 144.2 866.36 135.92 860.84 127.79 855.53 119.88 850.27 112.23 845.08 104.73 840.11 97.47 835.21 90.47 830.37 83.6 825.74 76.97 821.15 70.56 816.59 64.24 812.22 58.11 807.84 52.16 803.44 46.23 799.17 40.42 794.85 34.73 790.44 28.98 786.12 23.29 781.68 17.66 777.12 11.92 772.58 6.21 767.88 0.52 763 -5.29 758.12 -11.07 753.03 -16.79 747.74 -22.61 742.41 -28.33 736.85 -33.92 731.07 -39.52 725.23 -44.92 719.17 -50.08 712.87 -55.16 706.51 -59.93 699.93 -64.37 693.12 -68.66 686.25 -72.6 679.17 -76.17 671.89 -79.6 664.54 -82.71 657.01 -85.53 649.29 -88.29 641.53 -90.85 633.59 -93.27 625.51 -95.79 617.38 -98.28 609.11 -100.79 600.71 -103.54 592.27 -106.4 583.72 -109.37 575.06 -112.64 566.38 -116.02 557.6 -119.47 548.73 -123.13 539.85 -126.76 530.89 -130.27 521.87 -133.77 512.83 -136.98 503.73 -139.8 494.57 -142.36 485.42 -144.37 476.21 -145.76 466.96 -146.74 457.7 -147.05 448.41 -146.7 439.08 -145.96 429.75 -144.66 420.39 -142.86 411.01 -140.91 401.62 -138.69 392.32 -136.32 383.1 -134.11 373.89 -131.95 364.76 -129.9 355.72 -128.22 346.68 -126.73 337.72 -125.45 328.85 -124.56 319.98 -123.82 311.19 -123.16 302.49 -122.73 293.78 -122.25 285.15 -121.62 276.61 -120.99 268.05 -120.06 259.57 -118.77 251.17 -117.27 242.75 -115.32 234.4 -112.89 226.13 -110.19 217.84 -107.01 209.61 -103.37 201.45 -99.52 193.26 -95.29 185.13 -90.73 177.07 -86.1 168.97 -81.24 160.93 -76.22 152.95 -71.25 144.93 -66.21 136.97 -61.11 129.07 -56.15 121.14 -51.17 113.26 -46.18 105.45 -41.32 97.6 -36.43 89.83 -31.49 82.13 -26.62 74.4 -21.64 66.76 -16.52 59.21 -11.39 51.65 -6.06 44.2 -0.51 36.87 5.12 29.54 11.02 22.35 17.18 15.31 23.48 8.31 30.05 1.48 36.88 -5.17 43.84 -11.75 51.04 -18.14 58.46 -24.3 65.96 -30.37 73.64 -36.2 81.47 -41.77 89.31 -47.24 97.26 -52.43 105.3 -57.34 113.28 -62.13 121.3 -66.64 129.36 -70.84 137.31 -74.93 145.27 -78.72 153.22 -82.21 161.04 -85.61 168.85 -88.73 176.66 -91.57 184.32 -94.34 191.99 -96.87 199.66 -99.16 207.2 -101.43 214.76 -103.49 222.36 -105.36 229.84 -107.27 237.37 -109.03 244.98 -110.65 252.49 -112.36 260.09 -113.97 267.79 -115.48 275.42 -117.14 283.17 -118.73 291.04 -120.27 298.86 -121.97 306.83 -123.62 314.94 -125.22 323.01 -126.99 331.25 -128.7 339.66 -130.33 348.04 -132.11 356.6 -133.78 365.35 -135.33 374.09 -136.97 383.02 -138.43 392.17 -139.7" stroke-dasharray="5 4" transform="rotate(3.7407407407407405, 400, 400)" opacity="0.09"></path><path d="M406.18 -119.7C415.28 -120.95 424.5 -121.95 433.83 -122.68 443.17 -123.35 452.63 -123.7 462.21 -123.73 471.81 -123.64 481.54 -123.2 491.38 -122.41 501.25 -121.46 511.23 -120.15 521.33 -118.47 531.43 -116.63 541.63 -114.44 551.9 -111.9 562.16 -109.22 572.46 -106.22 582.77 -102.92 593.02 -99.5 603.24 -95.81 613.36 -91.87 623.36 -87.88 633.19 -83.66 642.81 -79.25 652.19 -74.82 661.27 -70.24 669.96 -65.52 678.31 -60.83 686.18 -56.03 693.5 -51.13 700.36 -46.31 706.58 -41.4 712.09 -36.44 717.08 -31.57 721.31 -26.64 724.75 -21.66 728.75 -14.33 732.39 0.41 732.36 7.85 731.65 15.21 729.45 30.19 728.88 37.86 729.31 42.94 730.36 48.15 732.21 53.46 735.2 58.75 739.27 64.17 744.55 69.72 751.23 75.26 759.23 80.95 768.57 86.79 779.24 92.63 791.11 98.62 804.02 104.78 817.81 110.95 832.22 117.28 846.98 123.77 861.78 130.28 876.27 136.95 890.1 143.78 902.95 150.64 914.44 157.65 924.23 164.8 932.18 171.99 937.93 179.32 941.31 186.78 942.45 194.27 941.14 201.9 937.46 209.65 931.89 217.42 924.41 225.31 915.38 233.31 905.54 241.33 895.05 249.45 884.44 257.67 874.56 265.91 865.61 274.23 858.11 282.64 852.76 291.06 849.65 299.55 849.05 308.12 851.3 316.7 856.21 325.34 863.68 334.03 873.59 342.74 885.41 351.49 898.66 360.3 912.89 369.11 927.32 377.97 941.25 386.87 954.18 395.76 965.17 404.6 973.73 413.36 979.75 422.13 982.68 430.83 982.42 439.45 979.21 448.08 972.98 456.64 964.05 465.13 952.94 473.62 939.97 482.05 925.71 490.4 910.8 498.77 895.72 507.07 881.04 515.31 867.34 523.56 854.99 531.75 844.34 539.89 835.8 548.04 829.42 556.15 825.26 564.2 823.49 572.29 823.8 580.33 825.99 588.33 830.04 596.37 835.38 604.38 841.64 612.35 848.72 620.36 855.95 628.35 862.92 636.31 869.61 644.32 875.35 652.3 879.87 660.25 883.23 668.26 884.96 676.23 884.94 684.17 883.34 692.15 879.92 700.09 874.73 707.98 868.01 715.89 859.73 723.75 850.08 731.52 839.28 739.3 827.48 746.98 814.9 754.55 801.75 762.09 788.22 769.49 774.54 776.72 760.83 783.89 747.3 790.86 734.11 797.61 721.31 804.25 709.07 810.64 697.44 816.76 686.45 822.72 676.17 828.38 666.58 833.71 657.71 838.86 649.5 843.66 641.91 848.1 634.97 852.34 628.54 856.2 622.55 859.69 614.47 864.45 600.01 871.92 593.22 874.71 586.67 877.07 573 880.53 565.65 881.82 558.01 883.14 541.11 885.8 531.79 887.32 525.41 888.62 518.69 890 511.66 891.48 504.56 893.27 497.15 895.18 489.45 897.2 481.7 899.52 473.67 901.93 465.37 904.41 457.04 907.13 448.47 909.85 439.66 912.54 430.84 915.36 421.8 918.07 412.55 920.59 403.31 923.11 393.98 925.32 384.58 927.19 375.19 928.9 365.75 930.19 356.26 931.02 346.79 931.59 337.29 931.65 327.77 931.2 318.29 930.43 308.79 929.13 299.29 927.3 289.84 925.16 280.41 922.52 271.01 919.4 261.66 916.02 252.37 912.21 243.14 908.01 234 903.63 224.94 898.93 215.99 893.94 207.14 888.88 198.42 883.61 189.85 878.17 181.41 872.75 173.13 867.23 165.05 861.63 157.1 856.14 149.36 850.63 141.84 845.12 134.47 839.77 127.32 834.45 120.4 829.18 113.61 824.09 107.05 819.06 100.71 814.07 94.46 809.29 88.4 804.54 82.54 799.82 76.71 795.29 71.04 790.76 65.49 786.23 59.92 781.85 54.45 777.43 49.05 772.96 43.56 768.59 38.12 764.15 32.71 759.6 27.18 755.12 21.67 750.51 16.19 745.76 10.58 741.03 5.02 736.14 -0.47 731.08 -6.05 726.01 -11.52 720.75 -16.85 715.3 -22.19 709.81 -27.34 704.13 -32.26 698.24 -37.1 692.31 -41.67 686.17 -45.95 679.83 -50.11 673.44 -53.96 666.85 -57.51 660.07 -60.95 653.24 -64.12 646.22 -67.04 639.03 -69.94 631.79 -72.67 624.39 -75.27 616.82 -77.96 609.22 -80.61 601.47 -83.25 593.58 -86.08 585.66 -88.96 577.61 -91.89 569.45 -95.04 561.26 -98.23 552.96 -101.42 544.57 -104.76 536.16 -108.01 527.65 -111.1 519.07 -114.17 510.47 -116.96 501.8 -119.38 493.06 -121.58 484.32 -123.31 475.51 -124.51 466.65 -125.38 457.78 -125.69 448.86 -125.44 439.9 -124.9 430.93 -123.86 421.92 -122.4 412.88 -120.83 403.83 -118.99 394.84 -117 385.93 -115.12 377.02 -113.23 368.18 -111.38 359.42 -109.82 350.65 -108.36 341.95 -107.03 333.33 -106 324.7 -105.05 316.14 -104.14 307.66 -103.43 299.16 -102.66 290.74 -101.76 282.39 -100.87 274.02 -99.74 265.72 -98.31 257.49 -96.75 249.24 -94.81 241.05 -92.47 232.93 -89.93 224.78 -86.98 216.69 -83.64 208.67 -80.14 200.62 -76.29 192.62 -72.14 184.69 -67.92 176.72 -63.47 168.82 -58.85 160.97 -54.27 153.09 -49.57 145.28 -44.79 137.52 -40.12 129.74 -35.4 122.03 -30.65 114.39 -26 106.73 -21.31 99.15 -16.55 91.65 -11.86 84.15 -7.07 76.74 -2.16 69.44 2.75 62.14 7.85 54.97 13.14 47.92 18.52 40.91 24.13 34.04 29.99 27.33 35.97 20.67 42.22 14.19 48.73 7.91 55.38 1.7 62.27 -4.29 69.4 -10.07 76.65 -15.75 84.1 -21.19 91.73 -26.38 99.42 -31.46 107.26 -36.28 115.22 -40.82 123.18 -45.25 131.22 -49.41 139.33 -53.29 147.39 -57.07 155.48 -60.57 163.6 -63.8 171.62 -66.96 179.66 -69.85 187.69 -72.5 195.62 -75.1 203.54 -77.47 211.47 -79.63 219.27 -81.79 227.09 -83.77 234.93 -85.58 242.65 -87.44 250.41 -89.17 258.2 -90.77 265.9 -92.47 273.67 -94.08 281.5 -95.61 289.26 -97.28 297.1 -98.88 305.05 -100.43 312.94 -102.14 320.94 -103.8 329.08 -105.4 337.17 -107.16 345.41 -108.86 353.81 -110.48 362.18 -112.23 370.72 -113.88 379.44 -115.41 388.15 -117.01 397.06 -118.45 406.17 -119.7" stroke-dasharray="9 1" transform="rotate(7.481481481481481, 400, 400)" opacity="0.12"></path><path d="M418.73 -99.69C427.75 -100.92 436.84 -101.91 446 -102.64 455.16 -103.31 464.39 -103.68 473.69 -103.75 483 -103.71 492.36 -103.34 501.77 -102.63 511.19 -101.79 520.63 -100.59 530.09 -99.05 539.54 -97.36 548.97 -95.32 558.36 -92.96 567.69 -90.46 576.95 -87.64 586.09 -84.53 595.11 -81.31 603.97 -77.81 612.61 -74.06 621.06 -70.25 629.23 -66.21 637.07 -61.97 644.64 -57.7 651.8 -53.27 658.49 -48.68 664.85 -44.11 670.68 -39.41 675.93 -34.61 680.8 -29.86 685.05 -25.03 688.67 -20.11 693.2 -12.83 698.74 1.88 699.97 9.29 700.6 16.61 700.87 31.38 701.19 38.85 702.56 46.27 709.18 61.41 715.2 69.17 720.66 74.33 727.2 79.6 734.86 84.99 743.72 90.34 753.68 95.83 764.69 101.44 776.66 107.04 789.44 112.78 802.84 118.65 816.65 124.53 830.63 130.55 844.5 136.71 857.98 142.88 870.79 149.2 882.58 155.66 893.16 162.14 902.2 168.76 909.45 175.52 914.86 182.29 918.17 189.21 919.27 196.26 918.41 203.32 915.43 210.52 910.47 217.84 904.03 225.17 896.11 232.63 887.07 240.19 877.62 247.77 867.88 255.46 858.32 263.25 849.69 271.06 842.13 278.95 836.07 286.94 832.1 294.94 830.24 303.02 830.7 311.18 833.74 319.35 839.15 327.59 846.8 335.9 856.59 344.21 868.02 352.59 880.66 361.03 894.11 369.47 907.69 377.97 920.8 386.52 932.99 395.08 943.43 403.58 951.69 412.04 957.68 420.5 960.9 428.9 961.23 437.25 958.89 445.61 953.76 453.91 946.09 462.16 936.32 470.41 924.71 478.61 911.7 486.76 897.88 494.92 883.63 503.03 869.47 511.1 855.92 519.17 843.32 527.21 832.04 535.19 822.46 543.2 814.7 551.17 808.87 559.1 805.17 567.06 803.42 574.98 803.5 582.87 805.45 590.79 808.82 598.68 813.33 606.54 818.95 614.43 825.07 622.3 831.36 630.13 837.8 638 843.78 645.83 849.01 653.63 853.54 661.45 856.86 669.24 858.82 676.97 859.54 684.73 858.69 692.42 856.25 700.05 852.44 707.68 847.08 715.22 840.29 722.66 832.3 730.08 823.11 737.38 812.9 744.54 801.87 751.65 790.14 758.59 777.91 765.35 765.3 772.03 752.51 778.5 739.68 784.73 726.89 790.84 714.32 796.69 702.07 802.27 690.17 807.69 678.73 812.81 667.8 817.62 657.38 822.25 647.51 826.56 638.19 830.52 629.43 834.31 621.18 837.75 613.41 840.85 606.13 843.79 599.26 846.41 592.72 848.7 586.58 850.87 580.67 852.75 574.95 854.36 566.82 856.58 551 860.01 543.05 861.39 535.1 862.84 518.35 865.87 509.42 867.58 503.38 868.99 497.09 870.48 490.53 872.06 483.94 873.92 477.09 875.87 469.98 877.91 462.83 880.23 455.43 882.61 447.77 885.04 440.09 887.68 432.16 890.31 424.01 892.9 415.84 895.6 407.44 898.18 398.84 900.59 390.23 902.98 381.53 905.09 372.75 906.88 363.98 908.53 355.14 909.78 346.26 910.61 337.4 911.21 328.51 911.34 319.6 910.99 310.73 910.36 301.86 909.23 293 907.61 284.2 905.7 275.42 903.32 266.71 900.49 258.06 897.4 249.48 893.9 240.99 890.01 232.59 885.95 224.31 881.55 216.15 876.87 208.09 872.09 200.19 867.08 192.45 861.88 184.83 856.67 177.38 851.33 170.14 845.89 163.01 840.52 156.09 835.09 149.37 829.63 142.77 824.3 136.37 818.97 130.17 813.66 124.06 808.51 118.15 803.39 112.41 798.3 106.71 793.39 101.17 788.51 95.78 783.66 90.37 778.98 85.06 774.31 79.85 769.65 74.57 765.14 69.35 760.6 64.17 756.04 58.88 751.6 53.61 747.1 48.37 742.53 42.99 738.05 37.63 733.47 32.3 728.78 26.85 724.14 21.44 719.37 16.11 714.46 10.71 709.57 5.41 704.53 0.26 699.32 -4.89 694.1 -9.86 688.72 -14.62 683.16 -19.31 677.57 -23.76 671.8 -27.94 665.86 -32.03 659.87 -35.85 653.71 -39.4 647.37 -42.87 641 -46.1 634.44 -49.11 627.72 -52.11 620.97 -54.95 614.05 -57.67 606.97 -60.45 599.86 -63.17 592.6 -65.84 585.2 -68.67 577.78 -71.48 570.22 -74.29 562.53 -77.26 554.83 -80.2 547.01 -83.1 539.08 -86.09 531.13 -88.96 523.08 -91.66 514.94 -94.33 506.79 -96.73 498.55 -98.79 490.24 -100.7 481.91 -102.19 473.51 -103.23 465.05 -104.03 456.58 -104.36 448.04 -104.22 439.45 -103.86 430.85 -103.09 422.2 -101.95 413.49 -100.72 404.79 -99.25 396.14 -97.61 387.54 -96.05 378.94 -94.43 370.39 -92.8 361.91 -91.37 353.42 -89.99 344.99 -88.64 336.62 -87.53 328.24 -86.44 319.93 -85.34 311.67 -84.4 303.4 -83.38 295.19 -82.23 287.04 -81.11 278.88 -79.78 270.78 -78.19 262.73 -76.52 254.66 -74.53 246.66 -72.21 238.7 -69.75 230.73 -66.95 222.82 -63.81 214.96 -60.55 207.08 -56.99 199.25 -53.16 191.48 -49.28 183.69 -45.19 175.96 -40.93 168.29 -36.69 160.6 -32.33 152.98 -27.88 145.42 -23.51 137.85 -19.08 130.36 -14.6 122.94 -10.22 115.52 -5.77 108.19 -1.27 100.95 3.16 93.72 7.7 86.6 12.36 79.59 17 72.61 21.81 65.76 26.79 59.05 31.84 52.39 37.1 45.88 42.59 39.54 48.2 33.26 54.05 27.16 60.16 21.27 66.41 15.45 72.91 9.85 79.66 4.47 86.54 -0.8 93.65 -5.85 100.96 -10.65 108.38 -15.36 115.97 -19.81 123.72 -24 131.53 -28.09 139.46 -31.93 147.49 -35.5 155.52 -38.99 163.63 -42.23 171.8 -45.22 179.93 -48.15 188.09 -50.84 196.28 -53.32 204.4 -55.76 212.53 -58.01 220.68 -60.06 228.74 -62.13 236.81 -64.04 244.9 -65.81 252.89 -67.63 260.91 -69.33 268.95 -70.92 276.91 -72.62 284.91 -74.23 292.95 -75.77 300.93 -77.45 308.96 -79.06 317.07 -80.63 325.13 -82.34 333.27 -84 341.52 -85.61 349.72 -87.36 358.04 -89.04 366.48 -90.65 374.9 -92.37 383.45 -93.99 392.16 -95.49 400.85 -97.06 409.7 -98.47 418.72 -99.69" stroke-dasharray="5 3" transform="rotate(11.222222222222221, 400, 400)" opacity="0.16"></path><path d="M426.92 -79.69C435.74 -80.89 444.57 -81.86 453.4 -82.59 462.23 -83.26 471.05 -83.65 479.86 -83.76 488.67 -83.77 497.45 -83.46 506.19 -82.83 514.91 -82.08 523.56 -81 532.14 -79.59 540.66 -78.04 549.08 -76.17 557.35 -73.97 565.53 -71.65 573.53 -69.02 581.31 -66.1 588.95 -63.08 596.33 -59.78 603.4 -56.23 610.28 -52.61 616.8 -48.76 622.93 -44.71 628.82 -40.62 634.27 -36.35 639.24 -31.92 643.95 -27.49 648.17 -22.93 651.86 -18.24 656.76 -11.22 663.78 3.17 666.06 10.5 667.89 17.77 670.61 32.45 672.02 39.86 674.18 47.18 681.29 62 686.87 69.52 691.73 74.48 697.44 79.52 704.05 84.64 711.67 89.71 720.25 94.87 729.75 100.13 740.18 105.35 751.41 110.68 763.35 116.11 775.87 121.53 788.79 127.05 801.92 132.7 815.05 138.34 827.95 144.1 840.37 149.99 852.09 155.87 862.84 161.89 872.37 168.03 880.55 174.18 887.13 180.46 891.91 186.87 894.98 193.29 896.1 199.84 895.27 206.51 892.78 213.19 888.52 220 882.65 226.92 875.71 233.86 867.7 240.91 858.94 248.08 850.11 255.25 841.28 262.53 832.88 269.92 825.54 277.31 819.37 284.81 814.69 292.39 812.01 299.99 811.29 307.67 812.69 315.44 816.4 323.22 822.21 331.07 829.97 339.01 839.58 346.94 850.59 354.95 862.6 363.03 875.29 371.12 888.05 379.27 900.34 387.48 911.81 395.7 921.71 403.89 929.65 412.04 935.59 420.19 939.04 428.3 939.89 436.38 938.33 444.46 934.21 452.5 927.72 460.5 919.26 468.51 908.96 476.48 897.23 484.41 884.56 492.36 871.27 500.26 857.8 508.13 844.62 516.01 832.05 523.86 820.44 531.68 810.14 539.51 801.31 547.31 794.1 555.08 788.74 562.87 785.14 570.62 783.24 578.35 783.13 586.1 784.49 593.82 787.1 601.5 790.98 609.21 795.65 616.89 800.8 624.52 806.46 632.18 812.06 639.79 817.33 647.35 822.35 654.93 826.57 662.45 829.82 669.9 832.23 677.35 833.38 684.72 833.22 692.01 831.91 699.27 829.21 706.43 825.15 713.47 819.95 720.47 813.5 727.33 805.92 734.03 797.41 740.66 787.99 747.12 777.81 753.37 767.03 759.53 755.75 765.47 744.13 771.17 732.26 776.75 720.29 782.07 708.32 787.11 696.41 792.02 684.7 796.63 673.24 800.94 662.06 805.09 651.24 808.94 640.82 812.47 630.78 815.85 621.18 818.93 611.99 821.69 603.21 824.33 594.83 826.68 586.82 828.75 579.18 830.74 571.85 832.48 564.8 833.98 558.04 835.46 551.48 836.76 545.07 837.88 538.88 839.05 532.77 840.11 526.7 841.07 520.78 842.16 514.83 843.2 508.83 844.22 502.91 845.44 496.89 846.67 490.74 847.95 484.63 849.47 478.37 851.05 471.94 852.7 465.52 854.61 458.91 856.6 452.1 858.66 445.29 860.96 438.28 863.31 431.07 865.68 423.85 868.24 416.43 870.78 408.82 873.26 401.19 875.84 393.38 878.29 385.39 880.58 377.4 882.86 369.33 884.87 361.2 886.57 353.09 888.16 344.93 889.37 336.73 890.2 328.57 890.82 320.38 891.01 312.2 890.75 304.06 890.25 295.94 889.28 287.85 887.85 279.82 886.16 271.85 884.03 263.94 881.46 256.11 878.66 248.37 875.46 240.73 871.89 233.18 868.14 225.75 864.06 218.46 859.68 211.27 855.2 204.23 850.47 197.36 845.54 190.58 840.57 183.97 835.45 177.55 830.19 171.22 824.98 165.06 819.68 159.09 814.33 153.19 809.06 147.46 803.77 141.9 798.47 136.37 793.31 130.98 788.15 125.74 783 120.48 778.01 115.33 773.03 110.28 768.08 105.17 763.28 100.12 758.49 95.13 753.71 90.03 749.08 84.96 744.43 79.91 739.77 74.73 735.23 69.56 730.66 64.4 726.04 59.1 721.51 53.83 716.91 48.57 712.24 43.21 707.63 37.9 702.91 32.67 698.1 27.38 693.32 22.2 688.41 17.16 683.38 12.13 678.35 7.27 673.19 2.61 667.87 -1.97 662.56 -6.34 657.08 -10.47 651.45 -14.51 645.8 -18.3 639.99 -21.86 634.03 -25.34 628.04 -28.61 621.88 -31.67 615.58 -34.71 609.24 -37.59 602.75 -40.34 596.12 -43.13 589.45 -45.84 582.64 -48.46 575.7 -51.19 568.73 -53.87 561.63 -56.49 554.4 -59.22 547.15 -61.89 539.78 -64.47 532.3 -67.12 524.81 -69.62 517.2 -71.95 509.5 -74.25 501.79 -76.3 493.98 -78.07 486.08 -79.71 478.17 -81.01 470.18 -81.94 462.11 -82.69 454.04 -83.06 445.89 -83.03 437.67 -82.86 429.45 -82.33 421.16 -81.49 412.81 -80.59 404.45 -79.46 396.14 -78.15 387.86 -76.9 379.58 -75.56 371.34 -74.15 363.15 -72.88 354.96 -71.59 346.81 -70.28 338.7 -69.13 330.6 -67.96 322.53 -66.73 314.52 -65.61 306.5 -64.39 298.53 -63.04 290.6 -61.71 282.67 -60.19 274.79 -58.44 266.95 -56.64 259.11 -54.56 251.31 -52.21 243.56 -49.76 235.8 -47.02 228.09 -44.01 220.44 -40.9 212.77 -37.54 205.16 -33.95 197.6 -30.32 190.04 -26.51 182.53 -22.53 175.09 -18.59 167.64 -14.52 160.26 -10.37 152.95 -6.29 145.64 -2.15 138.42 2.05 131.28 6.16 124.15 10.33 117.12 14.56 110.19 18.73 103.29 22.98 96.5 27.33 89.84 31.66 83.21 36.13 76.73 40.76 70.39 45.43 64.11 50.3 57.99 55.36 52.04 60.53 46.16 65.93 40.47 71.57 34.98 77.34 29.57 83.36 24.37 89.63 19.39 96.03 14.5 102.68 9.84 109.54 5.41 116.54 1.07 123.74 -3.02 131.13 -6.87 138.61 -10.64 146.25 -14.18 154.03 -17.47 161.86 -20.7 169.81 -23.7 177.85 -26.47 185.91 -29.2 194.03 -31.72 202.21 -34.04 210.38 -36.36 218.58 -38.49 226.81 -40.46 235 -42.46 243.22 -44.31 251.45 -46.04 259.64 -47.83 267.84 -49.52 276.06 -51.11 284.22 -52.81 292.41 -54.43 300.63 -55.98 308.8 -57.66 317 -59.29 325.25 -60.86 333.46 -62.57 341.73 -64.23 350.05 -65.83 358.35 -67.57 366.72 -69.24 375.18 -70.83 383.61 -72.52 392.14 -74.11 400.76 -75.58 409.37 -77.11 418.09 -78.49 426.91 -79.68" stroke-dasharray="0 2" transform="rotate(14.962962962962962, 400, 400)" opacity="0.19"></path><path d="M428.83 -59.68C437.32 -60.85 445.74 -61.81 454.1 -62.53 462.44 -63.2 470.71 -63.61 478.88 -63.75 487.04 -63.8 495.08 -63.55 503.01 -63.01 510.9 -62.35 518.64 -61.37 526.21 -60.09 533.73 -58.68 541.05 -56.96 548.14 -54.94 555.15 -52.79 561.9 -50.35 568.36 -47.63 574.7 -44.8 580.73 -41.71 586.41 -38.37 591.94 -34.95 597.1 -31.31 601.87 -27.45 608.56 -21.51 619.66 -8.75 624.09 -2 627.98 4.82 634.12 18.93 636.63 26.15 639.21 33.34 644.93 47.91 648.53 55.27 651.56 60.12 655.02 65.02 659 69.97 663.7 74.85 669.05 79.78 675.12 84.78 682.02 89.7 689.7 94.69 698.16 99.76 707.42 104.76 717.41 109.84 728.09 115 739.35 120.12 751.11 125.33 763.22 130.63 775.53 135.89 787.88 141.26 800.08 146.72 811.94 152.17 823.26 157.72 833.82 163.39 843.47 169.04 851.98 174.8 859.15 180.68 864.97 186.56 869.19 192.55 871.72 198.66 872.72 204.77 872 210.99 869.59 217.34 865.86 223.68 860.71 230.14 854.33 236.72 847.23 243.3 839.41 249.99 831.19 256.79 823.16 263.59 815.38 270.5 808.19 277.52 802.16 284.53 797.33 291.65 793.97 298.86 792.47 306.08 792.78 313.39 795 320.79 799.27 328.2 805.37 335.69 813.16 343.26 822.54 350.83 833.1 358.49 844.49 366.22 856.43 373.96 868.38 381.77 879.89 389.66 890.65 397.54 900.01 405.41 907.62 413.25 913.47 421.1 917.1 428.92 918.39 436.72 917.53 444.51 914.34 452.29 908.96 460.03 901.72 467.78 892.72 475.51 882.26 483.2 870.79 490.91 858.54 498.58 845.9 506.23 833.3 513.89 821 521.52 809.32 529.12 798.61 536.74 789.03 544.32 780.77 551.88 774.05 559.45 768.85 566.99 765.18 574.5 763.16 582.02 762.56 589.51 763.24 596.95 765.27 604.41 768.23 611.83 771.92 619.2 776.36 626.57 781.08 633.89 785.83 641.14 790.68 648.4 795.13 655.58 799.01 662.68 802.4 669.76 804.9 676.74 806.4 683.62 807.04 690.47 806.53 697.19 804.84 703.77 802.15 710.3 798.29 716.68 793.32 722.89 787.41 729.01 780.52 734.95 772.73 740.69 764.22 746.32 755.01 751.73 745.22 756.91 734.98 761.96 724.37 766.77 713.5 771.3 702.44 775.71 691.3 779.85 680.18 783.7 669.09 787.42 658.14 790.86 647.4 794.01 636.83 797.04 626.54 799.8 616.55 802.28 606.82 804.67 597.41 806.81 588.33 808.71 579.53 810.55 571.04 812.19 562.83 813.62 554.88 815.07 547.19 816.36 539.71 817.5 532.45 818.72 525.36 819.85 518.4 820.9 511.61 822.08 504.91 823.24 498.26 824.38 491.72 825.7 485.2 827.05 478.66 828.43 472.19 830.04 465.68 831.7 459.09 833.41 452.55 835.37 445.91 837.38 439.17 839.43 432.45 841.71 425.61 844.01 418.65 846.32 411.69 848.79 404.6 851.23 397.38 853.61 390.16 856.07 382.82 858.4 375.35 860.58 367.88 862.74 360.39 864.65 352.88 866.27 345.38 867.79 337.87 868.96 330.37 869.78 322.89 870.42 315.42 870.66 308 870.49 300.6 870.09 293.25 869.27 285.97 868.02 278.73 866.54 271.57 864.64 264.51 862.33 257.49 859.81 250.59 856.9 243.8 853.63 237.08 850.19 230.49 846.42 224.04 842.36 217.66 838.18 211.42 833.75 205.34 829.11 199.32 824.4 193.46 819.53 187.75 814.5 182.09 809.49 176.57 804.36 171.21 799.15 165.86 794.01 160.64 788.81 155.55 783.57 150.44 778.44 145.43 773.29 140.51 768.14 135.53 763.11 130.62 758.09 125.77 753.07 120.81 748.19 115.89 743.31 110.99 738.44 105.96 733.7 100.93 728.96 95.91 724.21 90.75 719.57 85.59 714.92 80.44 710.23 75.16 705.64 69.89 701 64.66 696.3 59.33 691.68 54.07 686.98 48.89 682.2 43.66 677.48 38.55 672.65 33.59 667.73 28.64 662.83 23.86 657.82 19.28 652.68 14.77 647.56 10.47 642.3 6.4 636.92 2.41 631.53 -1.33 626 -4.86 620.34 -8.32 614.66 -11.56 608.84 -14.61 602.88 -17.62 596.9 -20.47 590.79 -23.17 584.53 -25.89 578.26 -28.5 571.85 -31 565.31 -33.56 558.75 -36.04 552.07 -38.43 545.26 -40.9 538.43 -43.27 531.48 -45.52 524.42 -47.83 517.35 -49.99 510.17 -51.98 502.88 -53.95 495.59 -55.71 488.19 -57.22 480.69 -58.65 473.2 -59.8 465.61 -60.64 457.93 -61.37 450.25 -61.79 442.48 -61.89 434.64 -61.89 426.79 -61.6 418.87 -61.04 410.88 -60.43 402.88 -59.62 394.91 -58.63 386.96 -57.67 379.02 -56.59 371.1 -55.41 363.22 -54.32 355.33 -53.15 347.48 -51.92 339.66 -50.78 331.84 -49.57 324.06 -48.27 316.31 -47.03 308.57 -45.67 300.86 -44.16 293.19 -42.66 285.51 -40.97 277.88 -39.08 270.29 -37.14 262.7 -34.96 255.15 -32.55 247.65 -30.07 240.15 -27.34 232.69 -24.37 225.29 -21.34 217.88 -18.1 210.52 -14.66 203.23 -11.2 195.93 -7.58 188.7 -3.82 181.54 -0.1 174.38 3.72 167.3 7.63 160.29 11.47 153.3 15.37 146.4 19.32 139.59 23.18 132.8 27.09 126.11 31.06 119.55 34.95 113.01 38.91 106.59 42.96 100.31 46.97 94.08 51.1 87.99 55.35 82.05 59.63 76.17 64.07 70.46 68.69 64.93 73.38 59.46 78.28 54.18 83.4 49.1 88.63 44.09 94.1 39.29 99.8 34.7 105.64 30.2 111.72 25.9 118.02 21.84 124.46 17.85 131.12 14.08 137.99 10.53 144.98 7.06 152.15 3.8 159.49 0.76 166.93 -2.22 174.51 -5 182.21 -7.58 189.98 -10.14 197.86 -12.51 205.81 -14.71 213.81 -16.91 221.87 -18.95 229.98 -20.85 238.1 -22.79 246.27 -24.6 254.46 -26.3 262.65 -28.07 270.87 -29.75 279.1 -31.34 287.31 -33.04 295.54 -34.66 303.79 -36.23 312.02 -37.92 320.27 -39.55 328.54 -41.13 336.78 -42.84 345.06 -44.49 353.36 -46.09 361.64 -47.81 369.96 -49.45 378.31 -51.02 386.65 -52.68 395.03 -54.24 403.45 -55.68 411.87 -57.17 420.33 -58.51 428.82 -59.68" stroke-dasharray="4 9" transform="rotate(18.703703703703702, 400, 400)" opacity="0.23"></path><path d="M424.01 -39.67C432.04 -40.82 439.95 -41.75 447.72 -42.47 455.48 -43.14 463.1 -43.56 470.56 -43.73 478 -43.81 485.27 -43.62 492.36 -43.15 499.4 -42.58 506.24 -41.71 512.86 -40.55 519.42 -39.28 525.74 -37.71 531.8 -35.85 537.79 -33.88 543.49 -31.62 548.9 -29.1 556.71 -25.03 570.61 -15.54 576.67 -10.18 582.27 -4.54 591.88 7.64 596 14.13 599.94 20.74 607.33 34.47 611.06 41.53 613.82 46.22 616.73 50.98 619.84 55.81 623.37 60.57 627.24 65.4 631.5 70.27 636.34 75.08 641.67 79.95 647.57 84.87 654.13 89.71 661.3 94.61 669.11 99.57 677.59 104.46 686.69 109.41 696.38 114.42 706.61 119.37 717.32 124.39 728.41 129.48 739.79 134.51 751.33 139.63 762.9 144.82 774.35 149.97 785.54 155.21 796.28 160.53 806.44 165.83 815.83 171.22 824.28 176.7 831.72 182.16 837.95 187.72 842.82 193.38 846.41 199.03 848.51 204.78 849.08 210.64 848.35 216.49 846.15 222.44 842.57 228.5 837.99 234.56 832.33 240.72 825.77 246.99 818.83 253.25 811.47 259.62 803.98 266.09 796.91 272.57 790.26 279.14 784.32 285.82 779.58 292.49 776.03 299.27 773.88 306.14 773.46 313 774.68 319.97 777.59 327.02 782.31 334.08 788.62 341.22 796.37 348.45 805.47 355.68 815.56 363 826.31 370.39 837.52 377.79 848.69 385.27 859.43 392.83 869.52 400.39 878.34 407.94 885.61 415.47 891.33 423.01 895.08 430.53 896.76 438.03 896.52 445.54 894.16 453.03 889.8 460.5 883.72 467.97 875.95 475.42 866.76 482.85 856.5 490.29 845.37 497.71 833.68 505.1 821.81 512.49 809.99 519.87 798.5 527.21 787.67 534.57 777.67 541.89 768.67 549.18 760.91 556.48 754.41 563.75 749.23 570.98 745.5 578.21 743.09 585.41 741.92 592.55 742.06 599.7 743.23 606.79 745.25 613.83 748.19 620.85 751.63 627.81 755.39 634.7 759.54 641.57 763.63 648.35 767.47 655.03 771.19 661.69 774.35 668.24 776.84 674.66 778.79 681.04 779.86 687.29 780 693.39 779.37 699.42 777.72 705.29 775.06 710.98 771.59 716.6 767.14 722.02 761.79 727.23 755.69 732.35 748.8 737.24 741.21 741.91 733.04 746.47 724.32 750.79 715.15 754.86 705.62 758.81 695.78 762.51 685.74 765.96 675.53 769.29 665.24 772.37 654.94 775.2 644.64 777.93 634.43 780.42 624.36 782.67 614.39 784.87 604.61 786.84 595.04 788.61 585.64 790.35 576.47 791.92 567.55 793.33 558.81 794.76 550.3 796.06 542.01 797.26 533.9 798.53 525.98 799.74 518.25 800.88 510.66 802.16 503.23 803.42 495.92 804.67 488.72 806.1 481.62 807.55 474.59 809.02 467.65 810.7 460.74 812.43 453.86 814.19 447.03 816.17 440.2 818.19 433.36 820.23 426.55 822.47 419.71 824.72 412.83 826.96 405.97 829.35 399.06 831.69 392.1 833.96 385.14 836.3 378.12 838.51 371.06 840.57 364 842.62 356.97 844.43 349.98 845.97 342.99 847.42 336.05 848.56 329.16 849.36 322.28 850.01 315.46 850.29 308.72 850.19 301.99 849.89 295.34 849.21 288.78 848.13 282.25 846.84 275.82 845.15 269.5 843.09 263.21 840.83 257.04 838.2 251 835.23 244.98 832.09 239.09 828.64 233.35 824.89 227.62 821.03 222.03 816.91 216.58 812.56 211.15 808.14 205.84 803.54 200.66 798.77 195.48 793.98 190.41 789.07 185.45 784.05 180.46 779.07 175.56 774.01 170.74 768.89 165.86 763.84 161.03 758.76 156.27 753.65 151.4 748.64 146.56 743.61 141.75 738.58 136.81 733.66 131.88 728.74 126.95 723.81 121.88 719 116.8 714.19 111.72 709.37 106.5 704.65 101.28 699.92 96.08 695.17 90.76 690.51 85.46 685.82 80.21 681.08 74.89 676.43 69.64 671.72 64.49 666.95 59.31 662.24 54.26 657.45 49.36 652.59 44.5 647.76 39.81 642.84 35.31 637.83 30.89 632.84 26.68 627.75 22.69 622.54 18.8 617.35 15.13 612.03 11.68 606.6 8.31 601.18 5.15 595.62 2.2 589.95 -0.71 584.27 -3.45 578.46 -6.02 572.53 -8.6 566.59 -11.03 560.53 -13.35 554.34 -15.69 548.14 -17.93 541.82 -20.06 535.38 -22.23 528.94 -24.3 522.38 -26.25 515.7 -28.23 509.02 -30.08 502.23 -31.76 495.33 -33.45 488.42 -34.96 481.42 -36.26 474.31 -37.52 467.2 -38.56 460 -39.35 452.71 -40.08 445.41 -40.56 438.02 -40.78 430.55 -40.95 423.08 -40.88 415.53 -40.58 407.89 -40.26 400.26 -39.73 392.64 -39.04 385.04 -38.36 377.44 -37.54 369.85 -36.59 362.29 -35.68 354.73 -34.66 347.2 -33.53 339.69 -32.45 332.18 -31.25 324.7 -29.92 317.25 -28.62 309.81 -27.17 302.39 -25.55 295.01 -23.93 287.63 -22.11 280.29 -20.1 272.99 -18.04 265.69 -15.77 258.43 -13.28 251.22 -10.74 244.01 -7.98 236.85 -5.02 229.74 -2.02 222.64 1.16 215.59 4.53 208.61 7.89 201.63 11.39 194.73 15.01 187.89 18.59 181.07 22.26 174.33 26 167.68 29.66 161.04 33.37 154.5 37.13 148.06 40.79 141.66 44.49 135.36 48.24 129.18 51.89 123.04 55.59 117.03 59.37 111.16 63.08 105.34 66.88 99.66 70.79 94.14 74.68 88.68 78.71 83.39 82.89 78.27 87.11 73.22 91.51 68.35 96.1 63.67 100.77 59.06 105.65 54.64 110.75 50.43 115.96 46.29 121.4 42.35 127.05 38.62 132.85 34.95 138.86 31.49 145.08 28.23 151.43 25.02 157.98 22.01 164.71 19.2 171.57 16.42 178.59 13.82 185.76 11.41 193.03 9 200.43 6.75 207.94 4.66 215.52 2.56 223.2 0.59 230.96 -1.24 238.77 -3.13 246.65 -4.92 254.57 -6.6 262.52 -8.35 270.52 -10.03 278.54 -11.62 286.58 -13.32 294.63 -14.95 302.71 -16.53 310.79 -18.22 318.88 -19.85 326.97 -21.44 335.07 -23.14 343.17 -24.79 351.27 -26.37 359.38 -28.07 367.48 -29.69 375.57 -31.23 383.66 -32.85 391.75 -34.37 399.83 -35.78 407.9 -37.23 415.96 -38.53 424 -39.67" stroke-dasharray="6 3" transform="rotate(22.444444444444443, 400, 400)" opacity="0.26"></path><path d="M413.59 -19.67C421.07 -20.78 428.4 -21.69 435.55 -22.4 442.69 -23.06 449.65 -23.5 456.42 -23.69 463.17 -23.81 469.72 -23.67 476.05 -23.27 482.36 -22.78 488.43 -22.01 494.28 -20.97 502.86 -19.11 518.69 -13.87 525.92 -10.51 532.81 -6.74 545.26 2.09 550.86 7.12 556.24 12.43 566.19 24.01 570.91 30.21 575.78 36.55 585.96 49.82 591.53 56.68 595.65 61.26 600.02 65.91 604.71 70.64 609.84 75.32 615.36 80.07 621.31 84.87 627.79 89.62 634.75 94.43 642.21 99.29 650.2 104.09 658.7 108.94 667.68 113.85 677.12 118.7 686.97 123.6 697.18 128.55 707.67 133.46 718.36 138.42 729.16 143.44 739.96 148.41 750.64 153.44 761.07 158.55 771.15 163.61 780.72 168.74 789.64 173.95 797.84 179.12 805.13 184.38 811.4 189.71 816.64 195.02 820.69 200.41 823.45 205.89 825.2 214.13 820.58 231.04 814.59 239.72 809.54 245.53 803.72 251.43 797.3 257.43 790.77 263.43 784.09 269.52 777.5 275.7 771.47 281.88 765.99 288.16 761.3 294.53 757.8 300.89 755.46 307.36 754.42 313.91 754.96 320.46 756.97 327.1 760.45 333.83 765.52 340.56 771.94 347.38 779.58 354.28 788.37 361.18 797.96 368.17 808.08 375.24 818.56 382.31 828.97 389.46 838.98 396.7 848.4 403.93 856.69 411.16 863.61 418.38 869.18 425.6 873.01 432.81 875 440 875.3 447.2 873.69 454.39 870.26 461.56 865.26 468.73 858.67 475.89 850.69 483.03 841.65 490.17 831.67 497.29 821.01 504.38 810.01 511.48 798.85 518.55 787.78 525.59 777.1 532.64 766.95 539.65 757.53 546.63 749.06 553.61 741.58 560.55 735.19 567.45 730.04 574.34 726.04 581.18 723.18 587.96 721.54 594.74 720.92 601.46 721.21 608.1 722.47 614.73 724.4 621.28 726.84 627.74 729.87 634.18 733.1 640.52 736.37 646.75 739.8 652.94 742.99 659.01 745.81 664.96 749.39 673.72 752.54 690.39 751.75 698.26 749.14 705.81 738.72 719.81 731.07 726.21 725.14 730.3 718.56 734.18 711.42 737.82 703.82 741.37 695.76 744.69 687.34 747.78 678.61 750.78 669.62 753.56 660.44 756.11 651.11 758.6 641.69 760.87 632.23 762.95 622.73 764.98 613.27 766.84 603.89 768.51 594.55 770.19 585.32 771.73 576.25 773.13 567.26 774.57 558.44 775.91 549.79 777.17 541.24 778.51 532.87 779.79 524.67 781.03 516.58 782.41 508.65 783.76 500.87 785.11 493.18 786.63 485.62 788.17 478.19 789.72 470.83 791.46 463.56 793.23 456.39 795.03 449.26 797.02 442.21 799.03 435.21 801.06 428.25 803.25 421.33 805.44 414.45 807.61 407.58 809.9 400.74 812.14 393.92 814.3 387.11 816.52 380.3 818.62 373.52 820.56 366.73 822.5 360.04 824.21 353.44 825.67 346.84 827.05 340.33 828.15 333.92 828.93 327.5 829.58 321.19 829.9 314.98 829.87 308.77 829.66 302.67 829.09 296.68 828.17 290.7 827.05 284.83 825.57 279.08 823.74 273.34 821.72 267.71 819.37 262.21 816.69 256.7 813.84 251.32 810.69 246.05 807.27 240.78 803.71 235.62 799.91 230.57 795.87 225.49 791.75 220.52 787.44 215.64 782.95 210.71 778.43 205.86 773.76 201.09 768.97 196.24 764.19 191.45 759.31 186.7 754.36 181.86 749.45 177.05 744.48 172.26 739.46 167.34 734.52 162.44 729.55 157.53 724.55 152.5 719.65 147.45 714.72 142.4 709.79 137.21 704.95 132.01 700.1 126.82 695.24 121.5 690.47 116.19 685.69 110.91 680.89 105.54 676.18 100.21 671.44 94.93 666.67 89.62 661.98 84.4 657.25 79.28 652.47 74.18 647.75 69.21 642.98 64.4 638.15 59.64 633.36 55.07 628.5 50.7 623.57 46.42 618.67 42.35 613.68 38.5 608.61 34.75 603.55 31.23 598.4 27.93 593.15 24.72 587.91 21.72 582.57 18.92 577.12 16.18 571.68 13.63 566.12 11.24 560.46 8.88 554.8 6.66 549.02 4.58 543.14 2.49 537.25 0.52 531.25 -1.32 525.14 -3.21 519.03 -4.99 512.81 -6.64 506.48 -8.33 500.15 -9.9 493.71 -11.33 487.17 -12.78 480.63 -14.08 473.99 -15.21 467.25 -16.35 460.51 -17.31 453.68 -18.07 446.75 -18.82 439.82 -19.37 432.81 -19.72 425.7 -20.06 418.6 -20.19 411.41 -20.13 404.15 -20.06 396.88 -19.8 389.62 -19.38 382.37 -18.96 375.12 -18.39 367.88 -17.66 360.66 -16.96 353.44 -16.1 346.25 -15.1 339.07 -14.11 331.9 -12.96 324.75 -11.66 317.62 -10.34 310.51 -8.86 303.42 -7.19 296.36 -5.49 289.31 -3.59 282.29 -1.49 275.32 0.64 268.35 2.99 261.42 5.55 254.54 8.15 247.66 10.95 240.84 13.94 234.08 16.96 227.32 20.14 220.63 23.47 214 26.79 207.38 30.24 200.84 33.79 194.38 37.29 187.94 40.87 181.58 44.52 175.31 48.07 169.07 51.67 162.93 55.31 156.9 58.83 150.9 62.39 145.01 65.97 139.25 69.45 133.53 72.96 127.94 76.52 122.49 80 117.09 83.54 111.84 87.15 106.75 90.72 101.71 94.39 96.83 98.18 92.12 101.97 87.47 105.9 83 109.99 78.71 114.13 74.48 118.44 70.43 122.94 66.57 127.52 62.77 132.31 59.16 137.29 55.73 142.39 52.36 147.69 49.17 153.2 46.17 158.83 43.2 164.65 40.41 170.67 37.8 176.8 35.2 183.12 32.77 189.59 30.49 196.18 28.21 202.92 26.07 209.79 24.07 216.76 22.04 223.84 20.12 231.03 18.32 238.29 16.47 245.64 14.71 253.06 13.05 260.54 11.3 268.07 9.63 275.64 8.03 283.26 6.33 290.92 4.69 298.59 3.11 306.29 1.42 314 -0.21 321.71 -1.79 329.45 -3.48 337.18 -5.11 344.89 -6.68 352.62 -8.35 360.32 -9.94 368 -11.45 375.68 -13.04 383.33 -14.52 390.93 -15.88 398.54 -17.29 406.09 -18.56 413.58 -19.67" stroke-dasharray="7 6" transform="rotate(26.185185185185183, 400, 400)" opacity="0.30"></path><path d="M400 0.33C406.9 -0.74 413.63 -1.63 420.19 -2.32 426.74 -2.98 433.11 -3.42 439.29 -3.63 448.43 -3.74 465.69 -2.61 473.79 -1.35 481.64 0.31 496.28 5.07 503.09 8.15 509.71 11.61 522.12 19.8 528.01 24.48 533.9 29.46 545.58 40.37 551.54 46.24 555.73 50.23 560.01 54.35 564.43 58.6 569.13 62.84 574.04 67.19 579.18 71.64 584.68 76.07 590.48 80.58 596.62 85.18 603.15 89.75 610.06 94.38 617.36 99.09 625.07 103.75 633.17 108.47 641.66 113.24 650.5 117.97 659.68 122.76 669.15 127.59 678.86 132.38 688.77 137.22 698.8 142.11 708.86 146.95 718.88 151.84 728.76 156.79 738.42 161.7 747.73 166.66 756.6 171.68 764.95 176.66 772.63 181.7 779.55 186.8 785.68 191.87 790.87 197.01 795.02 202.22 799.27 210.03 800.62 225.98 797.79 234.13 794.75 239.58 790.8 245.1 786.05 250.71 780.87 256.31 775.2 261.99 769.2 267.75 763.3 273.51 757.45 279.35 751.86 285.28 746.93 291.2 742.64 297.21 739.16 303.3 736.83 309.39 735.59 315.57 735.55 321.83 736.93 328.09 739.59 334.43 743.55 340.86 748.86 347.28 755.31 353.79 762.78 360.38 771.21 366.97 780.29 373.64 789.78 380.39 799.55 387.14 809.23 393.97 818.52 400.88 827.3 407.79 835.07 414.69 841.63 421.59 847.02 428.48 850.89 435.37 853.13 442.25 853.88 449.13 852.94 455.99 850.36 462.84 846.34 469.69 840.86 476.52 834.05 483.33 826.2 490.14 817.38 496.93 807.81 503.69 797.78 510.45 787.42 517.19 776.96 523.89 766.66 530.58 756.65 537.24 747.1 543.86 738.23 550.47 730.11 557.04 722.84 563.55 716.56 570.05 711.25 576.5 706.93 582.88 703.7 589.24 701.42 595.54 700.03 601.75 699.6 607.94 699.91 614.04 700.84 620.05 702.47 626.02 704.49 631.89 706.77 637.64 709.41 643.34 712.08 648.93 714.64 654.37 718.36 662.39 723.5 677.56 724.48 684.68 724.15 691.51 719.23 704.11 714.62 709.85 710.79 713.53 706.32 717.01 701.24 720.28 695.7 723.47 689.63 726.46 683.09 729.25 676.19 731.97 668.91 734.5 661.3 736.83 653.44 739.12 645.35 741.23 637.07 743.17 628.64 745.09 620.11 746.86 611.51 748.49 602.85 750.13 594.19 751.66 585.55 753.07 576.91 754.55 568.33 755.94 559.84 757.25 551.38 758.67 543.04 760.03 534.8 761.36 526.63 762.82 518.58 764.27 510.65 765.71 502.79 767.3 495.05 768.91 487.43 770.52 479.87 772.31 472.43 774.11 465.09 775.93 457.8 777.92 450.61 779.91 443.52 781.9 436.46 784.05 429.48 786.17 422.58 788.26 415.7 790.46 408.9 792.59 402.16 794.64 395.43 796.74 388.76 798.73 382.15 800.56 375.55 802.39 369.07 804 362.73 805.38 356.39 806.69 350.17 807.74 344.07 808.5 337.97 809.15 332 809.49 326.14 809.52 317.41 809.16 300.52 806.55 292.37 804.29 284.3 801.45 268.67 794.01 261.09 789.47 256.03 786.23 251.06 782.74 246.17 779.02 241.23 775.21 236.36 771.21 231.55 767.02 226.66 762.78 221.83 758.38 217.04 753.85 212.15 749.31 207.29 744.66 202.45 739.91 197.49 735.18 192.55 730.37 187.6 725.5 182.54 720.68 177.46 715.81 172.38 710.91 167.18 706.07 161.97 701.2 156.74 696.3 151.41 691.48 146.08 686.64 140.76 681.78 135.35 677.01 129.96 672.21 124.62 667.4 119.22 662.66 113.89 657.9 108.63 653.11 103.37 648.4 98.22 643.65 93.19 638.87 88.2 634.14 83.37 629.38 78.71 624.56 74.12 619.8 69.73 614.98 65.55 610.1 61.47 605.26 57.61 600.35 53.97 595.37 50.44 590.41 47.13 585.38 44.05 580.27 41.06 575.18 38.29 570 35.72 564.73 33.22 559.47 30.9 554.12 28.76 548.68 26.64 543.25 24.68 537.71 22.87 532.08 21.05 526.46 19.35 520.73 17.77 514.91 16.16 509.09 14.66 503.17 13.27 497.15 11.83 491.13 10.51 485.02 9.29 478.81 8.03 472.6 6.89 466.3 5.89 459.9 4.84 453.5 3.93 447.02 3.17 440.44 2.38 433.87 1.75 427.21 1.28 420.47 0.8 413.72 0.47 406.9 0.32 400 0.16 393.09 0.17 386.19 0.34 379.3 0.51 372.41 0.85 365.53 1.35 358.67 1.86 351.81 2.54 344.97 3.39 338.14 4.27 331.32 5.32 324.53 6.56 317.76 7.83 310.99 9.3 304.26 10.97 297.56 12.69 290.86 14.62 284.21 16.76 277.59 18.95 270.98 21.35 264.42 23.95 257.91 26.6 251.4 29.44 244.96 32.45 238.57 35.49 232.2 38.68 225.89 42.02 219.65 45.34 213.43 48.78 207.29 52.32 201.23 55.8 195.19 59.35 189.24 62.96 183.39 66.47 177.57 70.03 171.85 73.61 166.24 77.07 160.66 80.56 155.21 84.06 149.87 87.44 144.58 90.85 139.42 94.27 134.4 99.27 127.01 109.39 113.04 114.57 106.49 119.79 100.19 130.82 88.48 136.69 83.1 142.79 77.95 155.97 68.57 163.06 64.32 167.95 61.56 173.02 58.96 178.28 56.51 183.63 54.07 189.17 51.77 194.87 49.61 200.67 47.44 206.63 45.39 212.74 43.45 218.94 41.48 225.28 39.62 231.73 37.85 238.27 36.03 244.91 34.29 251.64 32.63 258.45 30.89 265.32 29.22 272.26 27.62 279.25 25.92 286.3 24.28 293.37 22.69 300.49 21.01 307.63 19.38 314.77 17.81 321.95 16.13 329.13 14.52 336.3 12.97 343.48 11.33 350.65 9.77 357.77 8.3 364.91 6.76 372.01 5.32 379.05 3.99 386.1 2.63 393.08 1.4 399.99 0.33" stroke-dasharray="4 6" transform="rotate(29.925925925925924, 400, 400)" opacity="0.33"></path><path d="M386.4 20.33C392.75 19.29 398.94 18.43 404.99 17.75 413.98 16.88 431.16 16.26 439.35 16.56 447.37 17.2 462.63 19.79 469.9 21.75 477.06 24.08 490.85 30.05 497.56 33.65 504.31 37.58 517.86 46.54 524.78 51.53 529.58 54.95 534.46 58.54 539.47 62.28 544.69 66.05 550.08 69.95 555.67 73.98 561.51 78.02 567.6 82.18 573.95 86.44 580.59 90.69 587.51 95.04 594.74 99.48 602.26 103.89 610.08 108.39 618.2 112.95 626.57 117.49 635.21 122.09 644.07 126.76 653.11 131.39 662.3 136.07 671.59 140.81 680.92 145.51 690.23 150.26 699.45 155.07 708.51 159.83 717.34 164.64 725.83 169.51 733.95 174.33 741.57 179.21 748.61 184.14 755.06 189.03 760.77 193.98 765.66 198.98 771.41 206.47 776.92 221.7 776.59 229.45 775.28 234.62 773.07 239.85 770 245.15 766.4 250.43 762.13 255.79 757.33 261.21 752.34 266.62 747.08 272.1 741.71 277.66 736.6 283.2 731.7 288.82 727.17 294.52 723.37 300.21 720.23 305.97 717.9 311.81 716.66 317.65 716.41 323.56 717.25 329.55 719.33 335.53 722.54 341.6 726.84 347.74 732.3 353.87 738.71 360.09 745.96 366.37 754 372.66 762.56 379.02 771.42 385.46 780.5 391.89 789.46 398.4 798.07 404.98 806.21 411.56 813.47 418.13 819.67 424.69 824.86 431.26 828.72 437.81 831.15 444.35 832.29 450.89 831.93 457.41 830.1 463.91 826.99 470.42 822.52 476.9 816.82 483.36 810.13 489.81 802.46 496.24 794.01 502.64 785.01 509.03 775.57 515.39 765.87 521.71 756.14 528.02 746.5 534.29 737.1 540.51 728.14 546.72 719.69 552.87 711.85 558.97 704.79 565.05 698.49 571.07 693 577.01 688.43 582.93 684.7 588.77 681.77 594.53 679.11 603.07 678.24 619.61 679.55 627.56 681.91 635.33 687.63 650.12 690.42 657.11 692.92 663.85 695.74 676.42 695.75 682.22 694.69 687.75 689.06 697.8 684.5 702.31 678.79 706.56 664.32 714.11 655.75 717.44 649.61 719.58 643.14 721.57 636.39 723.41 629.42 725.26 622.24 726.98 614.88 728.58 607.38 730.21 599.75 731.75 592.05 733.19 584.26 734.71 576.43 736.15 568.6 737.53 560.73 739.02 552.88 740.46 545.07 741.87 537.26 743.41 529.51 744.93 521.84 746.45 514.18 748.1 506.61 749.76 499.12 751.43 491.67 753.24 484.3 755.06 477.04 756.89 469.8 758.85 462.66 760.82 455.62 762.77 448.6 764.85 441.67 766.9 434.83 768.91 428.01 771 421.28 773.03 414.63 774.98 407.99 776.96 401.43 778.83 394.95 780.55 388.47 782.27 382.14 783.79 375.96 785.09 369.77 786.33 363.73 787.33 357.81 788.07 348.99 788.89 331.96 788.91 323.73 788.07 315.57 786.7 299.74 782.23 292.05 779.15 284.36 775.59 269.3 766.97 261.88 761.98 256.88 758.49 251.93 754.8 247.02 750.92 242.01 746.98 237.04 742.89 232.08 738.64 227.02 734.37 221.98 729.97 216.93 725.46 211.79 720.96 206.63 716.36 201.47 711.68 196.21 707.04 190.94 702.32 185.66 697.55 180.28 692.83 174.91 688.07 169.54 683.26 164.09 678.52 158.66 673.74 153.26 668.93 147.81 664.19 142.4 659.43 137.06 654.64 131.71 649.91 126.45 645.16 121.28 640.39 116.15 635.68 111.15 630.94 106.29 626.17 101.5 621.45 96.88 616.7 92.45 611.91 88.11 607.17 83.98 602.38 80.06 597.55 76.26 592.76 72.67 587.91 69.31 583.01 64.56 575.67 56.31 560.7 52.77 553.05 49.53 545.36 43.96 529.6 41.58 521.52 39.31 513.38 35.29 496.66 33.49 488.1 32.27 482.36 31.14 476.54 30.09 470.63 28.98 464.72 27.96 458.73 27.04 452.66 26.05 446.58 25.16 440.43 24.39 434.19 23.55 427.95 22.84 421.64 22.25 415.25 21.62 408.85 21.13 402.39 20.78 395.84 20.4 389.3 20.19 382.77 20.14 376.24 20.08 369.72 20.2 363.21 20.49 356.71 20.8 350.22 21.3 343.75 21.98 337.29 22.71 330.85 23.64 324.42 24.77 318.03 25.97 311.64 27.38 305.28 28.99 298.96 30.69 292.65 32.59 286.37 34.71 280.14 36.91 273.92 39.31 267.75 41.92 261.64 44.58 255.53 47.43 249.49 50.46 243.51 53.51 237.54 56.72 231.64 60.07 225.82 63.41 220.01 66.86 214.29 70.4 208.65 73.9 203.04 77.46 197.52 81.08 192.1 84.61 186.71 88.18 181.42 91.76 176.24 95.24 171.09 98.73 166.06 102.22 161.16 107.28 153.92 117.24 140.17 122.18 133.68 127 127.39 136.77 115.64 141.78 110.18 146.83 104.93 157.48 95.26 163.13 90.83 168.98 86.59 181.53 78.84 188.25 75.32 195.24 71.92 210.14 65.68 218.02 62.81 223.41 60.89 228.94 59.06 234.59 57.32 240.32 55.52 246.16 53.79 252.11 52.14 258.12 50.41 264.23 48.74 270.41 47.14 276.65 45.44 282.95 43.8 289.31 42.22 295.71 40.55 302.15 38.93 308.61 37.37 315.11 35.72 321.63 34.13 328.14 32.61 334.68 31.01 341.21 29.48 347.72 28.05 354.24 26.55 360.74 25.16 367.19 23.87 373.64 22.56 380.05 21.37 386.39 20.33" stroke-dasharray="4 6" transform="rotate(33.666666666666664, 400, 400)" opacity="0.37"></path><path d="M375.98 40.34C384.71 38.92 401.66 36.98 409.88 36.51 417.99 36.3 433.74 37.05 441.39 38.02 448.98 39.33 463.9 43.18 471.28 45.71 478.73 48.58 493.79 55.46 501.49 59.45 512.16 65.08 523.26 71.41 534.92 78.36 547.35 85.45 560.56 93.07 574.63 101.15 589.53 109.25 605.29 117.73 621.76 126.54 638.69 135.27 655.91 144.29 673.02 153.54 689.62 162.66 705.24 172.01 719.3 181.56 731.52 190.97 741.24 200.59 747.96 210.41 751.96 220.1 752.63 230.02 749.99 240.15 745.14 250.18 737.85 260.46 728.84 270.98 724.28 276.21 719.65 281.51 715.07 286.87 710.87 292.22 706.98 297.63 703.54 303.11 699.81 311.35 697.57 328.15 699.46 336.71 702.13 342.44 705.76 348.23 710.31 354.09 715.83 359.95 722.13 365.88 729.11 371.87 736.73 377.86 744.75 383.92 753 390.04 761.4 396.16 769.67 402.34 777.61 408.59 785.15 414.84 791.91 421.08 797.73 427.3 802.7 433.52 806.51 439.73 809.08 445.91 810.53 452.1 810.67 458.26 809.5 464.4 807.2 470.54 803.68 476.65 799.01 482.73 793.4 488.81 786.86 494.86 779.52 500.86 771.6 506.86 763.14 512.82 754.32 518.74 745.33 524.64 736.26 530.49 727.24 536.29 718.46 542.08 709.98 547.8 701.9 553.46 687.48 564.72 675.55 575.69 666.36 586.29 660.3 596.78 656.8 606.87 655.41 616.48 656.26 625.93 658.14 634.87 660.41 643.23 663.29 651.4 665.45 658.95 666.44 665.86 666.75 672.57 665.3 678.63 662.02 684.03 657.52 689.3 651.16 693.96 643.11 698.03 633.97 702.09 623.44 705.68 611.8 708.83 599.47 712.17 586.4 715.21 572.84 718.03 565.95 719.58 558.98 721.09 551.97 722.58 544.91 724.18 537.84 725.76 530.77 727.34 523.69 729.04 516.62 730.74 509.59 732.43 502.55 734.26 495.56 736.08 488.63 737.89 481.7 739.83 474.83 741.76 468.03 743.66 461.25 745.67 454.52 747.64 447.88 749.56 441.24 751.55 434.67 753.47 428.18 755.31 421.69 757.18 415.27 758.93 408.92 760.55 402.58 762.16 396.37 763.58 390.3 764.8 384.22 765.98 378.27 766.93 372.45 767.64 363.76 768.46 346.91 768.62 338.73 767.93 330.6 766.78 314.71 762.89 306.92 760.17 299.12 757 283.7 749.26 276.04 744.74 265.64 738.31 255.32 731.12 245.05 723.28 234.43 715.29 223.81 706.8 213.19 697.92 202.25 689.07 191.34 679.93 180.51 670.58 169.53 661.38 158.75 652.02 148.27 642.54 137.91 633.27 128.03 623.87 118.77 614.36 109.88 605.06 101.75 595.61 94.48 586.01 87.68 576.58 81.77 566.95 76.73 557.12 72.08 547.4 68.18 537.43 64.99 527.23 62.72 519.57 58.84 503.93 57.16 495.94 55.49 487.89 52.44 471.43 51.03 463.02 50.02 457.4 49.09 451.69 48.21 445.92 47.25 440.15 46.37 434.31 45.56 428.39 44.67 422.48 43.87 416.5 43.17 410.45 42.41 404.4 41.76 398.28 41.23 392.1 40.67 385.91 40.26 379.74 40 373.59 39.74 367.43 39.66 361.29 39.74 355.17 39.86 349.05 40.18 342.95 40.69 336.88 41.26 330.82 42.04 324.78 43.03 318.77 44.11 312.77 45.41 306.81 46.93 300.89 48.54 294.97 50.38 289.1 52.43 283.27 54.58 277.46 56.94 271.7 59.5 266 62.14 260.31 64.96 254.68 67.96 249.11 74.09 238.04 80.78 227.26 87.91 216.82 94.91 206.48 102.14 196.51 109.5 186.97 116.45 177.56 123.43 168.6 130.38 160.15 136.84 151.84 143.31 144.05 149.84 136.82 155.99 129.72 162.33 123.17 168.91 117.19 175.35 111.29 182.2 105.92 189.49 101.08 196.85 96.23 204.75 91.84 213.2 87.89 221.84 83.81 231.04 80.09 240.75 76.71 248.22 74.07 263.79 69.01 271.86 66.58 277.31 64.89 282.85 63.26 288.46 61.69 294.1 60.03 299.81 58.43 305.56 56.88 311.34 55.26 317.16 53.7 323.01 52.21 328.87 50.65 334.76 49.17 340.65 47.78 346.55 46.33 352.45 44.98 358.34 43.75 364.24 42.48 370.12 41.34 375.97 40.34" stroke-dasharray="6 2" transform="rotate(37.407407407407405, 400, 400)" opacity="0.40"></path><path d="M371.16 60.34C382.08 58.42 392.83 57.16 403.39 56.6 413.97 56.2 424.43 56.6 434.78 57.78 445.24 59.24 455.72 61.53 466.28 64.62 477.11 68.01 488.18 72.18 499.6 77.09 511.46 82.24 523.82 88.07 536.77 94.5 550.26 101.1 564.39 108.22 579.13 115.81 594.29 123.47 609.88 131.51 625.69 139.9 641.43 148.27 656.89 156.93 671.67 165.83 685.49 174.66 697.92 183.73 708.46 192.98 717.12 202.14 723.29 211.51 726.68 221.05 727.83 230.5 726.22 240.14 722.01 249.97 716.39 259.73 709.13 269.69 700.93 279.85 693.34 289.95 686.4 300.28 680.99 310.82 678.45 321.33 678.7 332.07 682.16 343.03 689.31 353.97 699.51 365.15 712.21 376.54 726.96 387.93 742.36 399.55 757.16 411.37 770.56 423.2 780.73 434.95 786.92 446.59 789.34 458.24 787.14 469.77 780.61 481.15 770.67 492.52 757.54 503.72 742.18 514.71 725.76 525.67 708.94 536.39 692.63 546.82 677.72 557.2 664.57 567.25 653.54 576.93 645.09 586.51 638.9 595.67 634.77 604.38 632.88 612.95 632.34 621.02 632.68 628.55 634.09 635.92 635.47 642.74 636.37 648.98 637.07 657.84 631.11 672.62 623.86 678.68 617.67 682.6 610.1 686.13 601.33 689.3 591.88 692.67 581.48 695.81 570.33 698.75 558.79 702.04 546.74 705.25 534.37 708.37 521.83 711.94 509.12 715.48 496.38 718.95 483.6 722.85 470.86 726.62 458.24 730.2 445.63 734.04 433.14 737.53 420.81 740.54 408.49 743.54 396.58 745.78 385.08 747.21 373.53 748.35 362.32 748.54 351.43 747.74 340.42 746.51 329.66 744.26 319.1 741.04 308.37 737.36 297.76 732.75 287.25 727.29 276.5 721.48 265.8 714.93 255.12 707.74 244.2 700.36 233.29 692.46 222.42 684.12 211.4 675.77 200.47 667.08 189.72 658.13 178.97 649.27 168.53 640.21 158.51 630.99 148.72 621.92 139.5 612.71 130.97 603.39 122.87 594.22 115.56 584.92 109.1 575.49 103.12 566.2 97.98 556.75 93.69 547.14 89.72 537.63 86.46 527.92 83.85 518.02 81.27 508.18 79.14 498.11 77.4 487.82 75.4 477.56 73.63 467.06 72.06 456.32 70.09 445.59 68.28 434.62 66.67 423.41 64.7 412.21 63.01 400.77 61.69 389.11 60.23 377.46 59.35 365.87 59.12 354.38 59.05 342.9 59.79 331.53 61.37 320.31 63.33 309.11 66.2 298.07 69.98 287.24 74.17 276.45 79.2 265.88 84.99 255.59 91.03 245.36 97.66 235.43 104.75 225.85 111.79 216.34 119.1 207.21 126.56 198.5 133.69 189.89 140.85 181.71 147.98 174.01 154.64 166.42 161.26 159.3 167.87 152.7 174.05 146.18 180.3 140.15 186.68 134.63 192.78 129.15 199.15 124.13 205.83 119.58 212.41 114.98 219.42 110.78 226.86 106.96 234.35 103 242.32 99.35 250.76 95.99 259.31 92.4 268.32 89.05 277.73 85.93 287.25 82.52 297.13 79.32 307.31 76.36 317.55 73.11 328.04 70.14 338.71 67.5 349.4 64.67 360.23 62.26 371.15 60.35" stroke-dasharray="9 6" transform="rotate(41.148148148148145, 400, 400)" opacity="0.44"></path><path d="M373.07 80.35C383.4 78.51 393.76 77.29 404.15 76.72 414.58 76.28 425.1 76.57 435.72 77.59 446.46 78.85 457.41 80.86 468.61 83.63 480.03 86.65 491.8 90.41 503.97 94.85 516.45 99.53 529.39 104.85 542.77 110.76 556.43 116.83 570.49 123.43 584.8 130.5 599.17 137.65 613.54 145.21 627.67 153.12 641.33 161.05 654.27 169.28 666.14 177.78 676.84 186.24 685.93 194.93 693.06 203.84 698.47 212.67 701.61 221.71 702.35 230.92 701.39 240.07 698.29 249.39 693.31 258.89 687.59 268.32 680.93 277.93 673.94 287.72 667.97 297.46 662.96 307.38 659.58 317.49 658.88 327.56 660.71 337.83 665.28 348.28 672.97 358.71 683.13 369.34 695.26 380.14 709 390.93 723.16 401.91 736.7 413.05 749.04 424.19 758.58 435.23 764.71 446.13 767.64 457.03 766.56 467.79 761.63 478.38 753.65 488.95 742.62 499.33 729.3 509.47 714.67 519.59 699.19 529.44 683.65 539 668.84 548.5 655.13 557.67 642.93 566.46 632.69 575.17 624.33 583.48 617.78 591.35 613.27 599.1 610.23 606.4 608.3 613.19 607.62 622.97 607.68 639.86 606.6 647.01 604.2 653.67 592.88 665.06 583.87 670.02 576.95 673.44 569.02 676.66 560.22 679.7 551.03 683.08 541.16 686.36 530.73 689.54 520.09 693.13 509.06 696.64 497.74 700.05 486.35 703.83 474.77 707.45 463.09 710.85 451.4 714.47 439.64 717.73 427.85 720.54 416.06 723.33 404.51 725.42 393.21 726.78 381.87 727.89 370.74 728.14 359.8 727.51 348.78 726.51 337.89 724.58 327.12 721.76 316.22 718.55 305.39 714.47 294.61 709.6 283.69 704.41 272.79 698.5 261.94 691.96 250.97 685.21 240.06 677.94 229.26 670.21 218.45 662.41 207.83 654.25 197.48 645.79 187.29 637.37 177.49 628.71 168.2 619.86 159.23 611.1 150.9 602.18 143.29 593.13 136.13 584.2 129.76 575.13 124.22 565.93 119.12 556.86 114.81 547.63 111.27 538.28 108 529.01 105.34 519.58 103.25 510 101.14 500.48 99.39 490.77 97.96 480.89 96.21 471.04 94.62 460.99 93.16 450.76 91.25 440.54 89.42 430.12 87.72 419.52 85.62 408.92 83.73 398.14 82.14 387.18 80.4 376.23 79.21 365.37 78.62 354.63 78.21 343.9 78.6 333.3 79.82 322.88 81.44 312.46 83.98 302.23 87.43 292.22 91.33 282.25 96.08 272.51 101.62 263.05 107.46 253.65 113.92 244.54 120.89 235.78 127.89 227.08 135.22 218.74 142.75 210.8 150.03 202.93 157.38 195.47 164.74 188.45 171.67 181.51 178.57 175 185.41 168.94 191.82 162.94 198.22 157.37 204.67 152.25 210.76 147.12 216.99 142.4 223.41 138.08 229.62 133.69 236.12 129.64 242.95 125.93 249.69 122.07 256.83 118.48 264.36 115.16 271.89 111.61 279.85 108.29 288.2 105.19 296.58 101.83 305.35 98.68 314.48 95.78 323.63 92.63 333.11 89.75 342.89 87.2 352.67 84.49 362.73 82.18 373.06 80.35" stroke-dasharray="5 8" transform="rotate(44.888888888888886, 400, 400)" opacity="0.47"></path><path d="M381.26 100.36C391.14 98.6 401.21 97.42 411.45 96.84 421.73 96.38 432.24 96.58 442.97 97.45 453.8 98.51 464.92 100.28 476.34 102.73 487.9 105.4 499.81 108.76 512.03 112.75 524.41 116.96 537.09 121.78 549.99 127.16 562.93 132.7 575.96 138.75 588.91 145.27 601.62 151.88 613.97 158.91 625.72 166.29 636.77 173.72 646.83 181.46 655.6 189.48 663.21 197.49 669.18 205.75 673.31 214.22 676.02 222.66 676.8 231.3 675.66 240.12 673.39 248.89 669.56 257.83 664.5 266.93 659.27 275.99 653.64 285.21 648.15 294.57 643.9 303.91 640.79 313.4 639.28 323.04 640.22 332.65 643.35 342.43 648.78 352.34 656.79 362.25 666.76 372.31 678.24 382.5 690.97 392.69 703.92 403.02 716.25 413.46 727.55 423.91 736.45 434.22 742.43 444.38 745.75 454.53 745.61 464.52 742.11 474.31 735.9 484.09 726.88 493.65 715.59 502.97 702.85 512.25 688.97 521.27 674.6 529.98 660.42 538.65 646.76 546.98 634.04 554.96 622.69 562.87 612.75 570.39 604.28 577.5 597.54 584.54 592.16 591.15 587.96 597.31 584.08 606.23 579.9 621.8 578.07 628.51 575.97 634.86 567.68 646.03 561.07 651.01 556.01 654.48 550.02 657.76 543.18 660.89 536.02 664.31 528.11 667.64 519.53 670.85 510.75 674.41 501.42 677.86 491.62 681.2 481.73 684.83 471.47 688.28 460.9 691.5 450.3 694.88 439.45 697.93 428.38 700.53 417.32 703.12 406.31 705.07 395.38 706.35 384.45 707.42 373.57 707.72 362.76 707.23 351.92 706.42 341.12 704.79 330.36 702.35 319.55 699.57 308.77 695.99 298.02 691.69 287.22 687.08 276.47 681.8 265.8 675.91 255.14 669.81 244.6 663.19 234.25 656.1 224.01 648.91 214.05 641.34 204.46 633.45 195.11 625.54 186.24 617.37 177.93 608.98 170 600.64 162.73 592.11 156.18 583.43 150.07 574.83 144.71 566.08 140.13 557.21 135.92 548.43 132.42 539.51 129.6 530.47 126.96 521.51 124.85 512.4 123.21 503.18 121.46 494 120.01 484.67 118.78 475.21 117.2 465.79 115.71 456.2 114.28 446.48 112.38 436.77 110.5 426.9 108.69 416.9 106.47 406.9 104.41 396.76 102.6 386.5 100.62 376.23 99.15 366.09 98.26 356.09 97.53 346.1 97.57 336.26 98.42 326.61 99.67 316.97 101.83 307.53 104.87 298.32 108.38 289.14 112.76 280.2 117.92 271.54 123.45 262.92 129.63 254.6 136.35 246.6 143.21 238.65 150.44 231.05 157.94 223.81 165.3 216.63 172.79 209.81 180.33 203.4 187.54 197.03 194.74 191.05 201.89 185.48 208.63 179.92 215.35 174.74 222.05 169.95 228.37 165.13 234.76 160.66 241.23 156.53 247.43 152.32 253.8 148.4 260.4 144.79 266.82 141.01 273.53 137.48 280.56 134.2 287.5 130.7 294.8 127.42 302.47 124.36 310.09 121.07 318.11 117.99 326.5 115.15 334.86 112.11 343.62 109.34 352.75 106.88 361.86 104.3 371.36 102.1 381.25 100.36" stroke-dasharray="6 10" transform="rotate(48.629629629629626, 400, 400)" opacity="0.51"></path><path d="M393.81 120.36C403.33 118.7 413.1 117.57 423.09 116.99 433.11 116.5 443.39 116.62 453.92 117.35 464.51 118.25 475.37 119.78 486.46 121.93 497.62 124.28 509.01 127.25 520.56 130.81 532.13 134.56 543.78 138.88 555.4 143.73 566.88 148.73 578.16 154.23 589.08 160.17 599.58 166.22 609.46 172.68 618.51 179.49 626.8 186.37 633.99 193.57 639.86 201.05 644.7 208.54 648.05 216.3 649.81 224.27 650.53 232.23 649.73 240.4 647.5 248.75 644.64 257.07 640.78 265.56 636.22 274.2 631.91 282.82 627.62 291.58 623.76 300.48 621.25 309.35 619.91 318.36 620.08 327.5 622.4 336.61 626.56 345.86 632.61 355.22 640.74 364.56 650.38 374.03 661.14 383.6 672.85 393.16 684.62 402.83 695.79 412.57 706.09 422.31 714.34 431.9 720.11 441.31 723.69 450.72 724.33 459.95 722.06 468.96 717.45 477.96 710.28 486.73 700.95 495.25 690.16 503.74 678.04 511.97 665.13 519.89 652.01 527.78 638.94 535.36 626.31 542.59 614.52 549.77 603.67 556.6 593.9 563.05 585.46 569.45 578.18 575.47 571.96 581.1 567 586.7 562.86 591.91 559.35 596.74 555.5 603.81 548.9 616.3 545.15 621.83 540.97 627.3 529.1 637.47 521.22 642.31 515.53 645.75 509.13 649.08 502.06 652.29 494.83 655.78 487 659.15 478.61 662.38 470.13 665.84 461.16 669.12 451.75 672.14 442.31 675.3 432.48 678.12 422.3 680.52 412.11 682.92 401.84 684.72 391.51 685.92 381.19 686.95 370.82 687.28 360.43 686.91 350.05 686.28 339.64 684.9 329.24 682.8 318.85 680.42 308.48 677.31 298.15 673.53 287.86 669.49 277.65 664.81 267.57 659.56 257.6 654.11 247.82 648.14 238.3 641.72 228.98 635.18 220.01 628.25 211.47 620.98 203.23 613.66 195.5 606.05 188.36 598.21 181.6 590.37 175.49 582.33 170.07 574.12 165.04 565.95 160.69 557.62 157.03 549.16 153.67 540.76 150.91 532.22 148.73 523.58 146.63 514.99 144.96 506.27 143.66 497.46 142.19 488.68 140.92 479.78 139.81 470.77 138.31 461.8 136.84 452.7 135.39 443.5 133.45 434.31 131.5 425 129.58 415.6 127.25 406.2 125.04 396.7 123.05 387.11 120.89 377.53 119.19 368.09 118.03 358.82 117.02 349.55 116.73 340.45 117.21 331.55 118.07 322.66 119.8 313.98 122.38 305.53 125.44 297.1 129.35 288.91 134.04 281 139.12 273.12 144.89 265.52 151.24 258.23 157.8 250.97 164.8 244.03 172.13 237.42 179.43 230.85 186.93 224.61 194.54 218.73 201.94 212.87 209.37 207.34 216.79 202.18 223.89 197 230.96 192.15 238 187.64 244.69 183.08 251.4 178.82 258.13 174.87 264.57 170.81 271.11 167.01 277.78 163.47 284.23 159.79 290.88 156.32 297.76 153.09 304.5 149.66 311.52 146.44 318.86 143.43 326.11 140.22 333.7 137.23 341.66 134.48 349.56 131.56 357.85 128.9 366.54 126.56 375.2 124.1 384.28 122.02 393.8 120.36" stroke-dasharray="4 1" transform="rotate(52.37037037037037, 400, 400)" opacity="0.54"></path><path d="M407.82 140.37C416.96 138.8 426.32 137.72 435.87 137.15 445.44 136.65 455.22 136.7 465.17 137.3 475.14 138.04 485.28 139.35 495.53 141.23 505.77 143.27 516.07 145.88 526.35 149.02 536.53 152.33 546.58 156.17 556.38 160.5 565.93 164.97 575.06 169.91 583.64 175.27 591.74 180.74 599.08 186.61 605.5 192.82 611.23 199.11 615.88 205.71 619.33 212.6 621.98 219.53 623.39 226.71 623.52 234.12 623 241.54 621.39 249.17 618.8 256.97 616.01 264.78 612.67 272.75 609.04 280.86 605.95 288.96 603.14 297.21 600.94 305.57 600.08 313.93 600.34 322.4 601.93 330.98 605.35 339.55 610.28 348.23 616.7 356.99 624.77 365.75 633.96 374.6 643.96 383.51 654.64 392.43 665.28 401.42 675.34 410.46 684.66 419.49 692.25 428.36 697.76 437.04 701.49 445.71 702.73 454.19 701.51 462.45 698.3 470.7 692.81 478.72 685.34 486.49 676.45 494.24 666.17 501.73 654.91 508.94 643.18 516.11 631.14 523 619.13 529.57 607.52 536.1 596.42 542.32 586.02 548.21 576.53 554.06 567.9 559.59 560.15 564.78 553.42 569.96 547.48 574.82 542.19 579.34 535.75 586.03 525.22 598.06 520.32 603.5 515.57 608.93 504.22 619.11 497.28 623.97 492.41 627.39 486.94 630.68 480.9 633.85 474.77 637.24 468.07 640.5 460.82 643.59 453.5 646.87 445.67 649.95 437.36 652.77 429.02 655.71 420.22 658.31 411.01 660.52 401.8 662.72 392.41 664.38 382.89 665.49 373.4 666.47 363.79 666.82 354.13 666.55 344.49 666.07 334.82 664.92 325.14 663.14 315.52 661.1 305.92 658.43 296.41 655.14 287 651.63 277.71 647.53 268.6 642.9 259.66 638.08 250.97 632.77 242.59 627.02 234.46 621.14 226.71 614.87 219.42 608.26 212.44 601.58 205.98 594.6 200.1 587.37 194.56 580.12 189.61 572.64 185.3 564.98 181.29 557.33 177.88 549.52 175.07 541.56 172.44 533.63 170.3 525.57 168.63 517.4 166.96 509.26 165.61 501.01 164.53 492.67 163.22 484.35 162.05 475.93 160.96 467.43 159.46 458.94 157.96 450.36 156.44 441.71 154.44 433.07 152.41 424.34 150.38 415.54 147.96 406.75 145.64 397.89 143.51 388.98 141.21 380.07 139.33 371.32 137.94 362.75 136.68 354.18 136.09 345.79 136.21 337.61 136.69 329.44 137.97 321.47 140.06 313.74 142.61 306.01 145.97 298.53 150.1 291.31 154.64 284.1 159.88 277.16 165.72 270.51 171.83 263.87 178.42 257.52 185.4 251.48 192.47 245.44 199.8 239.71 207.32 234.29 214.74 228.86 222.25 223.74 229.81 218.92 237.15 214.07 244.5 209.51 251.83 205.24 258.89 200.91 265.95 196.83 273.01 193.02 279.81 189.1 286.65 185.42 293.57 181.97 300.26 178.38 307.08 174.99 314.06 171.82 320.88 168.48 327.9 165.33 335.16 162.4 342.32 159.3 349.75 156.41 357.5 153.76 365.17 150.97 373.19 148.44 381.57 146.21 389.92 143.9 398.66 141.93 407.8 140.37" stroke-dasharray="11 1" transform="rotate(56.111111111111114, 400, 400)" opacity="0.58"></path><path d="M419.99 160.37C428.67 158.9 437.48 157.88 446.37 157.32 455.28 156.82 464.27 156.81 473.32 157.3 482.35 157.9 491.4 159.02 500.4 160.63 509.34 162.39 518.16 164.65 526.79 167.41 535.27 170.3 543.44 173.68 551.2 177.5 558.67 181.45 565.6 185.84 571.88 190.62 577.73 195.5 582.79 200.76 586.96 206.36 590.6 212.03 593.29 218.02 594.97 224.28 596.13 230.59 596.32 237.16 595.6 243.95 594.56 250.77 592.81 257.8 590.48 265 588.26 272.21 585.84 279.6 583.42 287.12 581.69 294.64 580.4 302.31 579.77 310.08 580.38 317.85 582 325.74 584.74 333.71 588.99 341.68 594.43 349.75 601.01 357.88 608.85 366.01 617.5 374.21 626.68 382.46 636.35 390.71 645.89 399.01 654.88 407.33 663.27 415.65 670.19 423.8 675.39 431.76 679.16 439.72 680.87 447.47 680.5 455.02 678.48 462.55 674.49 469.87 668.71 476.94 661.64 484 653.2 490.82 643.69 497.37 633.56 503.91 622.87 510.17 611.91 516.16 601.02 522.13 590.27 527.82 579.85 533.22 569.99 538.61 560.67 543.72 551.98 548.54 544.04 553.37 536.73 557.93 530.01 562.21 524.01 566.54 518.48 570.62 513.33 574.45 506.52 580.22 493.98 590.93 487.72 595.94 481.47 601.04 467.39 610.83 459.34 615.52 453.81 618.78 447.83 621.9 441.38 624.83 434.91 627.92 427.97 630.79 420.6 633.41 413.2 636.11 405.38 638.5 397.15 640.51 388.92 642.52 380.51 644.04 371.96 645.06 363.44 645.98 354.8 646.35 346.11 646.16 337.46 645.8 328.79 644.86 320.14 643.35 311.57 641.64 303.06 639.35 294.68 636.52 286.42 633.5 278.33 629.94 270.47 625.9 262.79 621.68 255.4 617.01 248.35 611.93 241.54 606.71 235.14 601.12 229.19 595.19 223.51 589.19 218.32 582.88 213.67 576.31 209.28 569.7 205.42 562.85 202.11 555.81 199 548.77 196.39 541.54 194.26 534.16 192.21 526.79 190.55 519.29 189.25 511.67 187.85 504.06 186.69 496.35 185.71 488.54 184.46 480.76 183.29 472.88 182.15 464.93 180.6 456.99 179.01 448.97 177.39 440.9 175.31 432.84 173.2 424.71 171.08 416.54 168.6 408.37 166.2 400.16 163.96 391.92 161.57 383.67 159.55 375.6 157.99 367.71 156.53 359.82 155.67 352.12 155.46 344.62 155.56 337.12 156.4 329.83 157.99 322.76 160 315.69 162.78 308.86 166.28 302.26 170.19 295.67 174.78 289.33 179.98 283.25 185.49 277.17 191.52 271.34 197.98 265.79 204.61 260.24 211.56 254.94 218.77 249.92 225.99 244.88 233.37 240.1 240.86 235.59 248.25 231.03 255.69 226.72 263.16 222.66 270.45 218.53 277.75 214.62 285.06 210.95 292.17 207.18 299.3 203.61 306.47 200.25 313.46 196.77 320.52 193.48 327.67 190.39 334.68 187.15 341.82 184.11 349.12 181.27 356.33 178.29 363.73 175.52 371.36 172.99 378.92 170.34 386.75 167.95 394.85 165.85 402.92 163.68 411.3 161.84 419.98 160.38" stroke-dasharray="1 1" transform="rotate(59.85185185185185, 400, 400)" opacity="0.61"></path><path d="M427.5 180.38C435.6 179.01 443.69 178.05 451.75 177.5 459.8 177.01 467.8 176.96 475.71 177.34 483.59 177.82 491.33 178.76 498.88 180.14 506.35 181.63 513.56 183.58 520.45 185.96 527.17 188.47 533.48 191.4 539.29 194.74 544.85 198.19 549.83 202.04 554.16 206.25 559.8 212.89 566.83 227.91 568.16 236.2 568.53 241.87 568.23 247.79 567.32 253.92 566.38 260.09 565.03 266.47 563.41 273.02 562.1 279.6 560.82 286.34 559.72 293.21 559.36 300.1 559.49 307.13 560.27 314.26 562.12 321.39 564.82 328.64 568.43 335.96 573.23 343.29 578.93 350.7 585.46 358.16 592.93 365.63 600.95 373.16 609.29 380.72 617.96 388.28 626.45 395.88 634.43 403.49 641.91 411.1 648.17 418.55 653.01 425.8 656.73 433.06 658.75 440.12 659.06 446.99 658.04 453.85 655.33 460.5 651.07 466.93 645.67 473.35 638.99 479.55 631.24 485.52 622.81 491.48 613.67 497.2 604.08 502.67 594.3 508.14 584.4 513.37 574.54 518.35 564.93 523.34 555.57 528.09 546.58 532.59 538.06 537.12 529.97 541.42 522.34 545.49 515.25 549.62 508.57 553.53 502.26 557.24 496.42 561.04 490.85 564.65 485.48 568.08 480.45 571.63 475.5 575.02 470.56 578.26 465.84 581.64 461.01 584.88 456.04 587.97 451.16 591.22 446.06 594.33 440.7 597.29 435.37 600.4 429.73 603.34 423.77 606.1 417.81 608.97 411.51 611.63 404.88 614.04 398.24 616.51 391.26 618.68 383.96 620.51 376.66 622.33 369.22 623.71 361.71 624.64 354.21 625.5 346.65 625.86 339.07 625.74 331.54 625.49 324.04 624.72 316.6 623.45 309.24 622.03 301.99 620.09 294.9 617.68 287.94 615.1 281.18 612.05 274.69 608.56 268.35 604.92 262.32 600.86 256.65 596.42 251.16 591.86 246.07 586.94 241.4 581.7 236.94 576.37 232.91 570.75 229.35 564.88 225.96 558.95 223.02 552.78 220.52 546.42 218.13 540.02 216.13 533.45 214.5 526.72 212.86 519.98 211.51 513.09 210.41 506.09 209.15 499.1 208.05 491.99 207.07 484.79 205.78 477.6 204.53 470.32 203.28 462.97 201.64 455.63 199.94 448.23 198.2 440.77 196.05 433.32 193.86 425.82 191.67 418.29 189.15 410.76 186.71 403.2 184.42 395.63 181.97 388.06 179.88 380.65 178.18 373.42 176.56 366.2 175.48 359.15 174.98 352.29 174.74 345.44 175.16 338.78 176.25 332.33 177.72 325.87 179.89 319.63 182.73 313.61 185.95 307.58 189.82 301.78 194.29 296.2 199.08 290.62 204.4 285.27 210.17 280.16 216.17 275.02 222.53 270.12 229.2 265.45 235.98 260.76 242.98 256.28 250.14 252.04 257.31 247.74 264.59 243.66 271.94 239.8 279.21 235.87 286.53 232.13 293.88 228.6 301.11 224.98 308.37 221.54 315.64 218.29 322.8 214.94 330 211.76 337.24 208.78 344.39 205.67 351.6 202.75 358.9 200.03 366.14 197.2 373.48 194.57 380.96 192.18 388.39 189.69 395.98 187.44 403.74 185.48 411.47 183.46 419.39 181.75 427.49 180.38" stroke-dasharray="10 4" transform="rotate(63.592592592592595, 400, 400)" opacity="0.65"></path><path d="M428.6 200.38C435.98 199.12 443.23 198.22 450.32 197.7 457.41 197.22 464.31 197.13 471.01 197.43 477.67 197.8 484.08 198.58 490.2 199.75 499.08 201.83 514.75 208.1 521.32 212.25 527.1 216.89 535.52 228 538.1 234.39 539.84 241.17 540.6 256.12 539.93 264.21 539.52 269.7 538.94 275.4 538.29 281.27 538.06 287.16 537.99 293.22 538.19 299.41 539.08 305.62 540.45 311.96 542.38 318.41 545.2 324.86 548.69 331.42 552.88 338.06 557.97 344.7 563.71 351.42 570.01 358.19 577 364.97 584.32 371.8 591.8 378.66 599.49 385.52 606.96 392.41 613.97 399.31 620.59 406.21 626.19 412.96 630.64 419.53 634.22 426.11 636.43 432.51 637.25 438.73 637.02 444.94 635.39 450.98 632.43 456.81 628.53 462.64 623.46 468.28 617.4 473.71 610.66 479.14 603.18 484.37 595.12 489.38 586.75 494.41 578.06 499.23 569.2 503.83 560.36 508.46 551.54 512.89 542.85 517.11 534.39 521.36 526.16 525.43 518.22 529.3 510.61 533.22 503.3 536.98 496.29 540.55 489.63 544.21 483.23 547.7 477.05 551.04 471.16 554.47 465.42 557.77 459.8 560.91 454.38 564.18 449 567.3 443.61 570.29 438.35 573.39 433.01 576.35 427.57 579.16 422.19 582.07 416.66 584.83 410.96 587.38 405.28 590.03 399.41 592.47 393.34 594.66 387.26 596.9 380.98 598.86 374.5 600.5 368.02 602.14 361.51 603.38 354.99 604.23 348.48 605.01 341.99 605.37 335.55 605.3 329.15 605.12 322.83 604.51 316.63 603.45 310.5 602.28 304.52 600.66 298.75 598.62 293.06 596.45 287.61 593.86 282.43 590.88 274.99 586.03 261.92 574.39 256.39 567.69 251.41 560.59 243.45 544.98 240.42 536.59 238.52 530.89 236.92 525.01 235.59 518.97 234.18 512.91 232.96 506.71 231.92 500.38 230.67 494.05 229.52 487.6 228.44 481.06 227.05 474.52 225.67 467.89 224.27 461.2 222.51 454.51 220.69 447.75 218.84 440.95 216.63 434.15 214.38 427.31 212.15 420.44 209.63 413.57 207.18 406.67 204.87 399.77 202.43 392.87 200.29 386.12 198.52 379.54 196.79 372.96 195.54 366.54 194.79 360.3 194.25 354.06 194.29 348 194.92 342.12 195.87 336.24 197.44 330.55 199.61 325.05 202.13 319.55 205.24 314.24 208.91 309.13 212.9 304.01 217.4 299.08 222.35 294.36 227.55 289.62 233.15 285.07 239.08 280.73 245.18 276.35 251.54 272.16 258.12 268.17 264.78 264.13 271.6 260.27 278.54 256.6 285.5 252.87 292.54 249.31 299.63 245.94 306.69 242.48 313.8 239.19 320.93 236.08 328 232.88 335.11 229.84 342.23 226.99 349.3 224.04 356.4 221.27 363.53 218.69 370.63 216.03 377.77 213.56 384.95 211.31 392.11 208.99 399.33 206.91 406.6 205.09 413.87 203.23 421.21 201.65 428.59 200.39" stroke-dasharray="7 7" transform="rotate(67.33333333333333, 400, 400)" opacity="0.68"></path><path d="M423.02 220.39C429.58 219.23 435.92 218.41 442.02 217.92 451.03 217.4 467.63 218.16 475.12 219.45 479.93 220.49 484.37 221.89 488.42 223.61 496.26 227.3 502.37 232.32 506.65 238.54 510.58 245.03 512.82 252.66 513.62 261.23 514.75 269.99 515.23 279.62 515.68 289.93 517.84 300.34 521.1 311.37 525.99 322.82 529.48 328.57 533.47 334.42 537.95 340.34 543.09 346.27 548.67 352.28 554.6 358.34 560.99 364.41 567.57 370.52 574.18 376.67 580.92 382.82 587.42 389.01 593.52 395.2 599.3 401.4 604.26 407.45 608.28 413.36 612.79 422.15 615.09 438.96 612.85 446.96 610.22 452.23 606.59 457.35 602.07 462.28 591.27 472.17 577.9 481.4 562.99 489.9 547.54 498.5 531.75 506.45 516.29 513.73 501.47 521.22 487.34 528.14 474.03 534.45 461.52 541.1 449.57 547.24 438.05 552.8 432.46 555.71 426.9 558.49 421.35 561.11 415.87 563.81 410.37 566.34 404.83 568.69 399.32 571.1 393.75 573.3 388.11 575.27 382.48 577.28 376.77 579.03 371 580.5 362.36 582.51 345.5 584.7 337.34 584.83 329.34 584.48 314.21 581.74 307.18 579.36 298.11 575.65 290.04 570.49 283.15 564.05 276.52 557.28 271.08 549.34 266.89 540.43 262.71 531.31 259.52 521.33 257.19 510.71 254.32 499.99 251.87 488.71 249.65 477.03 248.12 471.19 246.58 465.25 245.02 459.25 243.13 453.24 241.22 447.17 239.27 441.05 237.02 434.93 234.75 428.76 232.51 422.57 230.02 416.38 227.61 410.16 225.33 403.93 222.93 397.7 220.8 391.61 218.99 385.66 216.52 376.82 213.97 359.88 214.05 351.81 214.52 346.47 215.53 341.3 217.07 336.3 221.03 326.26 227.08 316.87 234.94 308.19 243.77 299.42 254.08 291.29 265.48 283.86 277.36 276.24 289.98 269.25 303.01 262.92 316.16 256.32 329.55 250.33 342.97 245.03 349.68 242.26 356.4 239.66 363.11 237.25 369.82 234.77 376.52 232.48 383.2 230.4 389.89 228.27 396.56 226.36 403.2 224.69 409.84 222.99 416.45 221.55 423.01 220.39" stroke-dasharray="9 9" transform="rotate(71.07407407407408, 400, 400)" opacity="0.72"></path><path d="M412.07 240.4C423.44 238.31 433.78 237.44 442.97 237.74 452.06 238.18 459.89 239.86 466.36 242.7 472.67 245.76 477.6 249.98 481.18 255.24 484.76 260.71 487.27 267.18 488.97 274.51 491.29 282 493.45 290.27 495.87 299.19 499.83 308.2 504.77 317.78 510.95 327.8 519.15 337.85 528.67 348.29 539.16 358.97 550.85 369.66 562.47 380.57 573.06 391.55 582.71 402.54 589.37 413.08 592.68 423.09 593.65 433.1 591.03 442.6 585.22 451.52 577.39 460.48 567.13 468.89 555.18 476.71 542.4 484.62 528.81 492.01 515.01 498.83 501.33 505.83 487.87 512.35 474.89 518.32 462.35 524.55 450.27 530.29 438.68 535.48 427.42 540.93 416.44 545.82 405.72 550 395.12 554.36 384.61 557.92 374.25 560.49 363.89 563.04 354.13 564.32 345.06 564.35 336.01 564.18 327.71 562.67 320.29 559.92 312.95 556.87 306.54 552.59 301.15 547.19 295.79 541.53 291.39 534.82 287.93 527.24 284.26 519.48 281.29 510.92 278.91 501.73 275.9 492.46 273.14 482.62 270.52 472.39 266.9 462.13 263.19 451.51 259.45 440.68 254.71 429.84 250.06 418.81 245.79 407.71 241.1 396.61 237.54 385.96 235.32 375.84 233.54 365.71 233.51 356.09 235.24 347.05 237.86 337.96 242.31 329.42 248.37 321.47 255.3 313.43 263.63 305.93 273.06 299.04 283.05 291.98 293.87 285.46 305.2 279.54 316.79 273.4 328.72 267.82 340.73 262.88 352.84 257.72 364.97 253.2 376.92 249.45 388.91 245.54 400.69 242.47 412.06 240.4" stroke-dasharray="3 3" transform="rotate(74.81481481481481, 400, 400)" opacity="0.75"></path><path d="M398.31 260.4C407.93 258.55 416.6 257.75 424.26 257.96 431.87 258.27 438.44 259.62 443.96 261.97 449.45 264.46 453.98 267.94 457.64 272.32 461.5 276.84 464.77 282.24 467.67 288.39 471.25 294.65 474.93 301.63 478.96 309.18 484.21 316.82 490.21 324.99 497.03 333.56 505.24 342.18 514.23 351.16 523.66 360.4 533.81 369.65 543.69 379.13 552.61 388.72 560.83 398.31 566.72 407.57 570.03 416.4 571.69 425.25 570.56 433.69 566.87 441.67 561.61 449.69 554.22 457.28 545.19 464.39 535.29 471.58 524.34 478.35 512.84 484.64 501.14 491.07 489.26 497.08 477.54 502.61 465.95 508.32 454.61 513.58 443.67 518.31 432.9 523.23 422.46 527.61 412.42 531.32 402.46 535.16 392.8 538.26 383.52 540.48 374.24 542.69 365.72 543.81 358 543.86 350.26 543.77 343.31 542.57 337.2 540.31 331.05 537.85 325.72 534.34 321.22 529.89 316.6 525.24 312.72 519.68 309.51 513.35 305.98 506.88 302.93 499.69 300.27 491.91 297 484.06 293.89 475.67 290.89 466.9 287.05 458.08 283.19 448.91 279.36 439.51 274.76 430.1 270.31 420.47 266.24 410.74 261.83 401.01 258.39 391.63 256.06 382.68 254.02 373.71 253.4 365.15 254.22 357.06 255.68 348.94 258.66 341.25 263.03 334.05 268.09 326.77 274.41 319.95 281.76 313.63 289.64 307.19 298.36 301.22 307.65 295.78 317.25 290.18 327.25 285.08 337.42 280.57 347.74 275.9 358.12 271.82 368.34 268.45 378.62 264.97 388.68 262.24 398.31 260.4" stroke-dasharray="11 7" transform="rotate(78.55555555555556, 400, 400)" opacity="0.79"></path><path d="M384.93 280.41C392.92 278.8 400.19 278.08 406.71 278.22 416.12 278.95 431.55 284.78 437.93 289.76 442.29 293.43 446.4 297.83 450.4 302.87 454.98 308 459.74 313.74 464.8 320 470.72 326.31 477.13 333.11 484 340.29 491.74 347.49 499.84 355.06 508.03 362.87 516.61 370.7 524.81 378.76 532.15 386.98 539 395.19 544.07 403.17 547.2 410.83 549.23 418.5 549.16 425.88 547.12 432.9 543.95 439.95 539.03 446.67 532.67 453.01 525.54 459.42 517.34 465.49 508.43 471.15 499.17 476.92 489.5 482.32 479.69 487.29 469.83 492.39 459.99 497.08 450.36 501.28 440.78 505.6 431.42 509.43 422.43 512.65 413.47 515.94 404.84 518.6 396.62 520.48 388.4 522.35 380.95 523.3 374.25 523.36 364.5 522.86 348.44 517.2 341.99 512.18 337.71 508.45 333.96 503.94 330.7 498.77 327.09 493.5 323.81 487.6 320.81 481.17 317.28 474.68 313.87 467.71 310.58 460.36 306.64 452.98 302.75 445.25 298.97 437.28 294.62 429.3 290.47 421.09 286.7 412.73 282.65 404.38 279.43 396.28 277.12 388.51 274.96 380.72 273.94 373.25 274.06 366.14 274.59 359 276.34 352.21 279.23 345.81 282.6 339.36 287.05 333.27 292.4 327.61 298.18 321.87 304.73 316.52 311.87 311.64 319.29 306.64 327.15 302.1 335.26 298.09 343.52 293.97 351.92 290.38 360.27 287.42 368.67 284.38 376.95 282.01 384.93 280.41" stroke-dasharray="0 4" transform="rotate(82.29629629629629, 400, 400)" opacity="0.82"></path><path d="M375.08 300.41C384.6 298.74 401.56 299.04 409.06 300.95 416.39 303.61 430.29 312.2 437.29 317.97 442.37 322.06 447.61 326.65 453.03 331.69 458.99 336.76 465.2 342.25 471.59 348.09 478.46 353.94 485.41 360.12 492.24 366.55 499.24 372.99 505.83 379.66 511.71 386.51 517.24 393.35 521.45 400.04 524.25 406.51 526.36 412.98 526.96 419.25 526.1 425.26 524.51 431.29 521.56 437.08 517.45 442.57 512.77 448.11 507.12 453.37 500.74 458.31 494.02 463.31 486.78 468 479.23 472.32 471.55 476.72 463.7 480.75 455.85 484.36 447.98 488.03 440.17 491.26 432.57 493.97 424.98 496.72 417.59 498.92 410.52 500.47 403.44 502.02 396.97 502.8 391.11 502.86 382.55 502.5 368.01 498.08 361.87 494.12 355.86 489.41 345.1 476.99 340.09 469.48 336.42 464.28 332.87 458.66 329.46 452.69 325.6 446.7 321.84 440.38 318.26 433.82 314.28 427.25 310.54 420.45 307.15 413.49 303.56 406.53 300.66 399.73 298.49 393.16 296.38 386.59 295.15 380.24 294.79 374.17 295.06 365.15 300.58 348.52 305.61 340.98 309.5 336.01 314.06 331.37 319.18 327.13 324.49 322.83 330.26 318.91 336.35 315.45 342.54 311.92 348.96 308.86 355.46 306.34 362.01 303.78 368.59 301.77 375.08 300.41" stroke-dasharray="4 2" transform="rotate(86.03703703703704, 400, 400)" opacity="0.86"></path><path d="M371.03 320.42C381.3 318.22 391.05 318.4 400.12 320.65 409.51 323.02 418.79 327.48 428 333.65 438.18 339.93 448.84 347.85 459.52 356.95 471.09 366.11 482.13 376.38 491.25 387.33 499.55 398.29 503.8 408.9 504.01 418.75 502.51 428.65 497.25 437.88 489.2 446.04 480.16 454.35 469.25 461.66 457.58 467.51 445.72 473.51 433.58 478.02 421.95 480.47 410.32 482.9 400.19 482.89 391.6 480.73 382.72 478.41 374.94 473.93 368.22 467.67 360.7 461.27 353.72 453.19 347.43 443.89 340.04 434.55 333.22 424.08 327.61 412.94 321.44 401.8 317.67 391.05 316.38 381.11 315.51 371.12 317.4 361.87 321.72 353.75 326.63 345.51 333.67 338.33 342.18 332.67 350.93 326.87 360.75 322.61 371.03 320.42" stroke-dasharray="2 7" transform="rotate(89.77777777777777, 400, 400)" opacity="0.89"></path><path d="M373.74 340.43C381.5 338.75 389.44 338.84 397.29 340.47 405.32 342.14 413.55 345.36 421.74 349.84 430.36 354.36 439.12 360.12 447.52 366.82 456.22 373.54 464.27 381.16 470.79 389.38 476.87 397.61 480.27 405.67 481.04 413.23 480.98 420.81 478.38 427.93 473.72 434.25 468.5 440.63 461.64 446.25 453.8 450.73 445.8 455.26 437.12 458.65 428.27 460.46 419.42 462.27 411.22 462.27 403.84 460.7 396.31 459.06 389.34 455.84 383.05 451.31 376.34 446.72 370.05 440.86 364.41 434.06 358.21 427.22 352.6 419.48 348.06 411.14 343.19 402.79 340.1 394.64 338.78 387.03 337.56 379.4 338.27 372.27 340.73 365.99 343.4 359.65 347.72 354.12 353.36 349.76 359.09 345.34 365.98 342.1 373.74 340.43" stroke-dasharray="8 7" transform="rotate(93.51851851851852, 400, 400)" opacity="0.93"></path><path d="M382.58 360.43C393.16 358.17 405.5 360.63 417.41 366.44 429.82 372.31 441.96 381.47 450.34 392.46 457.97 403.45 459.06 414.22 454.7 422.81 449.42 431.49 439.78 438.07 427.99 440.45 416.19 442.83 404.58 440.41 394.75 434.57 384.29 428.63 374.8 419.36 368.52 408.25 361.61 397.14 359.67 386.33 362.22 377.77 364.91 369.14 371.99 362.68 382.58 360.43" stroke-dasharray="6 6" transform="rotate(97.25925925925925, 400, 400)" opacity="0.96"></path></g></svg>